<svg xmlns="http://www.w3.org/2000/svg" width="170" height="45" viewBox="0 0 170 45">
  <path fill="#279B37" d="M64.6 34.7h-4.2v-2.6h-.1c-1.4 1.9-4.1 3.2-6.6 3.2-3 0-5.4-1.2-7.1-3.2-1.5-1.8-2.4-4.3-2.4-6.9 0-2.6.7-4.8 2.5-6.8 2-2.2 4.4-3.3 7.2-3.3 2.6 0 4.9 1.2 6.5 3.3v-2.7h4.2v19zm-9.9-15c-3.4 0-5.8 2.5-5.8 5.8 0 3.1 2.6 5.5 5.7 5.5 3.3 0 5.6-2.4 5.6-5.7 0-3.2-2.3-5.7-5.5-5.6zm32.8 15h-4.3v-2.6h-.1c-1.4 2.1-3.9 3.2-6.4 3.2-2.8 0-5.3-1.3-7-3.2-1.6-1.8-2.6-4.3-2.6-6.8s.9-5 2.6-6.9c1.7-1.9 4.5-3.2 7.1-3.2 2.2 0 4.5.9 6 2.6V9.5h4.6v25.2zm-10.1-15c-3 0-5.6 2.6-5.6 5.5 0 3.1 2.4 5.8 5.6 5.8 3.2 0 5.7-2.6 5.7-5.7.1-3.2-2.5-5.6-5.7-5.6zm13 11L99 19.9h-7.6v-4h13.1v4L96 30.7h9.2v4H90.4v-4zm34.4-14.9v18.9h-4.3v-2h-.1c-1 1.8-2.8 2.6-4.9 2.6-2.3 0-4.5-.9-6.1-2.6-1.7-1.8-1.8-3.8-1.8-6.2V15.8h4.6v9.3c0 1.2 0 2.8.6 3.9.6 1.2 1.9 1.9 3.3 1.9 3.5 0 4-3.1 4-5.8v-9.3h4.7zm3.7 0h4.3v1.7h.1c1.2-1.6 3.2-2.4 5.3-2.4s4.1.9 5.5 2.4l.5.5c1.5 2 1.5 4.4 1.5 6.8v9.8h-4.6v-8.9c0-1.5 0-3.3-.8-4.6-.7-1-1.9-1.6-3.1-1.6-1.3 0-2.6.6-3.2 1.7-.8 1.3-.8 3.3-.8 4.8v8.6h-4.6V15.8zM169 34.7h-4.2v-2.6h-.1c-1.4 1.9-4.1 3.2-6.6 3.2-3 0-5.4-1.2-7.1-3.2-1.5-1.8-2.4-4.3-2.4-6.9 0-2.6.7-4.8 2.5-6.8 2-2.2 4.4-3.3 7.2-3.3 2.6 0 4.9 1.2 6.5 3.3v-2.7h4.2v19zm-10-15c-3.4 0-5.8 2.5-5.8 5.8 0 3.1 2.6 5.5 5.7 5.5 3.3 0 5.6-2.4 5.6-5.7.1-3.2-2.2-5.7-5.5-5.6zM40.6 23.2c0-6.9-2.5-12.6-7.3-16.6C29 3 22.9 1 16.2 1v5.5c5.4 0 10.1 1.5 13.4 4.3 3.5 2.9 5.3 7.2 5.3 12.4 0 8.4-7 15.2-15.5 15.2-7 0-12.8-5.6-12.8-12.5 0-2.7 1.1-5.3 3-7.1 2-1.9 4.6-2.9 7.4-2.9 2.4 0 4.5.7 6 1.9 1.4 1.2 2.2 3 2.2 5.1 0 3.6-2.7 6.2-6.5 6.2v5.5c6.9 0 12.1-5 12.1-11.7 0-3.7-1.5-7-4.1-9.3-2.5-2.1-5.9-3.3-9.7-3.3-4.3 0-8.3 1.6-11.4 4.5-2.9 3-4.6 6.9-4.6 11.1C1 35.9 9.3 44 19.4 44c11.7 0 21.2-9.3 21.2-20.8z"/>
</svg>