<svg xmlns="http://www.w3.org/2000/svg" viewBox="0 0 470.6 43.37" width="100%" height="24px"><path fill="#230939" d="M422.83 29.22c3.72-1.45 6.19-4.95 6.19-8.99 0-5.27-4.28-9.58-9.55-9.58h-12.82v32.24h7.86V30.5l9.46 12.39h9.35l-10.49-13.67Zm-4.5-5.69h-3.81v-6.09h3.81c1.86 0 3.19 1.38 3.19 3.07s-1.34 3.02-3.19 3.02ZM91.23 3.11 72.78 21.6 54.34 3.11v39.78h8.21V22.87l10.23 10.27 10.24-10.27v20.02h8.21V3.11zm98.42 40.26c-7.37 0-11.2-4.13-11.84-4.76l4.14-5.87c.65.57 3.58 3.17 7.45 3.17 2.63 0 3.39-1.26 3.39-2.27s-.79-1.98-3.56-3.01l-2.44-.91c-4.5-1.68-7.36-4.82-7.36-9.48 0-5.72 4.58-10.06 11.09-10.06 5.86 0 9.15 2.82 9.51 3.14l-3.88 6.04c-.79-.54-2.98-1.74-5.41-1.74-2.27 0-3.3.97-3.3 2.13 0 1.51 1.34 2.16 3.74 3.05l2.21.83c4.63 1.73 7.55 5.27 7.55 9.52 0 5.83-4.61 10.23-11.27 10.23"></path><path fill="#00b6b4" d="M116.82 35.6c-4.94 0-8.74-3.95-8.74-8.82s3.8-8.82 8.74-8.82 8.74 3.95 8.74 8.82-3.8 8.82-8.74 8.82m0-25.42c-9.37 0-16.76 7.43-16.76 16.59s7.39 16.59 16.76 16.59 16.76-7.43 16.76-16.59-7.39-16.59-16.76-16.59"></path><path fill="#230939" d="M142.42 42.89h7.88V26.92l19.83 16.42V10.66h-7.88v15.97l-19.83-16.42v32.68zm64.42-32.23v7.5h7.42v24.73h8.14V18.16h7.42v-7.5h-22.98zm31.42 0v32.23h20.41v-7.5h-12.39v-5.04h9.73v-7.32h-9.73v-4.87h12.18v-7.5h-20.2zM349.52 35.3c-4.94 0-8.74-3.95-8.74-8.82s3.8-8.82 8.74-8.82 8.74 3.95 8.74 8.82-3.8 8.82-8.74 8.82m0-25.41c-9.37 0-16.76 7.43-16.76 16.59s7.39 16.59 16.76 16.59 16.76-7.43 16.76-16.59-7.39-16.59-16.76-16.59m89.78-3.43h12.78c10.26 0 18.53 8.16 18.53 18.22s-8.26 18.22-18.53 18.22H439.3V6.46Zm12.78 28.94c6.11 0 10.26-4.88 10.26-10.73s-4.16-10.73-10.26-10.73h-4.57v21.45h4.57Zm-67.42-25.37-16.02 32.86h7.89l2.26-4.87h11.73l2.26 4.87h7.89l-16.02-32.86Zm2.85 21.84h-5.91l3.06-6.75 3.06 6.75h-.21Zm-102-2.64c3.72-1.45 6.19-4.95 6.19-8.99 0-5.27-4.28-9.58-9.55-9.58h-12.82V42.9h7.86V30.51l9.46 12.39H296l-10.49-13.67ZM281 23.54h-3.81v-6.09H281c1.86 0 3.19 1.38 3.19 3.07s-1.34 3.02-3.19 3.02Zm41.23 2.22c1.41-1.41 2.28-3.26 2.28-5.54 0-5.29-4.33-9.57-9.62-9.57h-12.73v32.23h14.83c5.47 0 9.81-4.26 9.81-9.6 0-3.47-1.82-6.07-4.56-7.53Zm-12.22-8.33h3.81c1.86 0 3.19 1.38 3.19 3.07s-1.34 3.02-3.19 3.02h-3.81v-6.09Zm6.1 18.57h-6.1v-5.99h6.1c1.83 0 3.14 1.36 3.14 3.02S317.93 36 316.11 36Z"></path><path fill="#007d91" d="M40.25 15.61v.46c0 3.01-.87 5.82-2.38 8.19l-1.2-1.2-2.75 2.75h-5.51L26.6 24c.94-.21 1.8-.58 2.58-1.07a2.068 2.068 0 0 0 4.06-.56c0-.97-.66-1.78-1.56-2a8.238 8.238 0 0 0 1.19-4.3v-.21l1.06-1.06h5.51l.81.81Zm-1.51 2.62c0-1.14-.92-2.07-2.07-2.07s-2.06.92-2.06 2.07.92 2.06 2.06 2.06 2.07-.92 2.07-2.06Z"></path><path fill="#00b6b4" d="m40.25 15.61-.81-.81h.77c.02.27.04.54.04.81Zm-.82-.82h-5.51l2.76-2.75 2.75 2.75zm-1.16-6.26c-.38.46-.95.75-1.59.75-1.14 0-2.06-.92-2.06-2.06 0-.84.51-1.57 1.23-1.89.94.95 1.76 2.03 2.43 3.2Zm-1.59 7.64c1.14 0 2.07.92 2.07 2.07s-.92 2.06-2.07 2.06-2.06-.92-2.06-2.06.92-2.07 2.06-2.07Zm0 6.88 1.2 1.2c-.35.54-.72 1.06-1.14 1.55h-2.82l2.75-2.75Z"></path><path fill="#007d91" d="M34.04 3.78c.64.47 1.24.99 1.8 1.55-.72.32-1.23 1.05-1.23 1.89 0 1.14.92 2.06 2.06 2.06.64 0 1.22-.29 1.59-.75 1.07 1.88 1.74 4 1.93 6.26h-.77l-2.75-2.75-2.75 2.75h-1.15a8.05 8.05 0 0 0-.45-1.72 2.068 2.068 0 1 0-2.42-3.35c-.73-.6-1.58-1.07-2.5-1.38.21-.32.33-.71.33-1.13a2.066 2.066 0 1 0-4.13 0c0 .28.05.54.15.78-1.27.16-2.43.62-3.43 1.29h-.17c-1.14 0-2.07.92-2.07 2.07v.2c-.54.83-.94 1.78-1.15 2.79l-2.3-2.3-2.75 2.75H9.43a15.16 15.16 0 0 1 3.24-8.21 2.06 2.06 0 0 0 1.97 2.69c1.15 0 2.06-.92 2.06-2.06s-.92-2.07-2.06-2.07c-.31 0-.6.07-.86.19.56-.57 1.17-1.09 1.81-1.57h1.8l2.75 2.75 2.75-2.75h5.51l2.75 2.75 2.75-2.75h.12Z"></path><path fill="#00b6b4" d="M33.97 3.73s.05.03.07.05h-.12l.05-.05Zm-.05 11.06-1.06 1.06c0-.36-.04-.71-.09-1.06h1.15Zm0 11.02-2.75 2.75-2.75-2.75h5.5zm0-22.03-2.75 2.75-2.75-2.75h5.5z"></path><path fill="#007d91" d="M33.92 3.78h-5.51l-2.75-2.75-2.75 2.75H17.4l-.72-.72c.69-.42 1.42-.8 2.19-1.11a2.066 2.066 0 0 0 3.24-.94c.88-.15 1.79-.23 2.71-.23 1.62 0 3.17.24 4.62.69a2.061 2.061 0 0 0 2.22.87c.81.4 1.59.86 2.31 1.39l-.05.05Z"></path><path fill="#00b6b4" d="M31.17 9.29c1.14 0 2.07.92 2.07 2.07 0 .72-.36 1.35-.92 1.72a8.045 8.045 0 0 0-2.42-3.35c.35-.27.79-.44 1.27-.44Zm.5 11.07a2.068 2.068 0 1 1-2.5 2.56 8.012 8.012 0 0 0 2.49-2.56Zm-.01-18.02a2.075 2.075 0 0 1-2.22-.87c.77.24 1.51.53 2.22.87Zm-3.24 1.44h-5.51l2.76-2.75 2.75 2.75zm0 22.03h-5.51l1.62-1.62h.29c.62 0 1.21-.07 1.79-.19l1.81 1.81Zm-.69-18.59c0 .42-.12.8-.33 1.13-.8-.27-1.67-.41-2.57-.41-.36 0-.72.02-1.07.07-.1-.24-.15-.51-.15-.78 0-1.14.92-2.07 2.07-2.07s2.06.92 2.06 2.07Zm-2.06 19.96c1.14 0 2.06.92 2.06 2.06a2.066 2.066 0 1 1-4.13 0c0-1.15.92-2.06 2.07-2.06Z"></path><path fill="#007d91" d="M25.67 31.31c1.14 0 2.06-.92 2.06-2.07s-.92-2.06-2.06-2.06a2.066 2.066 0 1 0 0 4.13Zm11.07-5.5c-2.81 3.38-7.08 5.53-11.92 5.53-2.99 0-5.77-.82-8.11-2.25a2.064 2.064 0 0 0-2.06-1.91c-.14 0-.28.01-.41.04-.48-.44-.92-.92-1.34-1.42h4.5l2.75 2.75 2.75-2.75h5.51l2.75 2.75 2.75-2.75h2.82Z"></path><path fill="#007d91" d="m24.53 24.18-1.62 1.62H17.4l-2.75-2.75-2.19 2.19c-1.71-2.26-2.79-5-3.02-7.99l2.46-2.46h4.97c-.06.41-.1.84-.1 1.27 0 1.92.64 3.68 1.72 5.07a2.068 2.068 0 0 0 1.66 3.3c.67 0 1.27-.32 1.64-.82.84.34 1.76.54 2.73.57Zm-7.81-5.95a2.066 2.066 0 1 0-4.13 0c0 1.15.92 2.06 2.07 2.06s2.06-.92 2.06-2.06Z"></path><path fill="#00b6b4" d="m22.91 25.81-2.75 2.75-2.75-2.75h5.5zm0-22.03-2.75 2.75-2.75-2.75h5.5zm-.8-2.76a2.066 2.066 0 0 1-3.24.94c1.03-.42 2.11-.74 3.24-.93Zm-.31 22.59c-.38.5-.97.82-1.64.82a2.068 2.068 0 0 1-1.66-3.3 7.834 7.834 0 0 0 3.3 2.48Zm-3.71-12.26c0-1.14.92-2.07 2.07-2.07h.17c-.89.6-1.64 1.37-2.22 2.26v-.2Zm-.68-7.57h-1.8c.35-.26.71-.5 1.08-.72l.72.72Zm0 11.01h-.53c.02-.15.05-.3.08-.45l.45.45Zm0 11.02h-4.5c-.15-.18-.3-.37-.44-.56l2.19-2.19 2.75 2.75Zm-2.76-13.77 2.3 2.3c-.03.15-.06.3-.08.45H11.9l2.75-2.75Zm2.06 17.05v.16a2.066 2.066 0 1 1-4.13 0c0-1 .71-1.84 1.66-2.02.75.7 1.58 1.33 2.47 1.87Z"></path><path fill="#00b6b4" d="m14.65 1.03 2.03 2.03c-.37.23-.73.47-1.08.72h-3.7l2.75-2.75Zm0 4.13c1.14 0 2.06.92 2.06 2.07s-.92 2.06-2.06 2.06-2.07-.92-2.07-2.06c0-.22.04-.43.1-.63.34-.43.71-.85 1.1-1.24.26-.12.56-.19.86-.19Zm0 11.01c1.14 0 2.06.92 2.06 2.07s-.92 2.06-2.06 2.06a2.066 2.066 0 1 1 0-4.13Zm0 11.01c1.09 0 1.98.84 2.06 1.91-.89-.54-1.71-1.17-2.47-1.87.13-.03.27-.04.41-.04Z"></path><path fill="#00b6b4" d="M12.69 6.59c.18-.55.58-1 1.1-1.24-.39.39-.76.81-1.1 1.24Zm.21 19.22h-1l.56-.56c.14.19.29.38.44.56Zm-1-11.02-2.46 2.46c-.03-.39-.05-.79-.05-1.19 0-.43.02-.85.05-1.27h2.45Zm0 11.02-2.76 2.75-2.75-2.75h5.51zm0-22.03L9.14 6.53 6.39 3.78h5.51z"></path><path fill="#00b6b4" d="M6.39 14.79h3.05c-.03.42-.05.84-.05 1.27 0 .4.02.8.05 1.19l-.29.29-2.75-2.75Z"></path><path fill="none" d="M24.82 24.19c-4.55 0-8.04-3.64-8.04-8.13s3.5-8.13 8.04-8.13 8.04 3.64 8.04 8.13-3.5 8.13-8.04 8.13m0-23.4C16.19.79 9.39 7.63 9.39 16.07s6.8 15.28 15.43 15.28 15.43-6.84 15.43-15.28S33.45.79 24.82.79"></path><path fill="#3d2462" d="M10.26 32.6C4.37 32.6.11 28.49.11 25.31v-2.79h8.41v1.9c0 .5.78 1.32 1.74 1.32S12 24.93 12 24.42v-4.5c0-.5-.47-.93-1.43-.93H6.38v-5.74h4.19c.97 0 1.43-.43 1.43-.93V8.21c0-.5-.78-1.32-1.74-1.32s-1.74.81-1.74 1.32v1.9H.11V7.28C.11 4.14 4.37.04 10.26.04s10.16 4.11 10.16 7.25v4.42c0 1.28-.93 3.95-3.49 4.42 2.56.5 3.49 3.18 3.49 4.46v4.73c0 3.18-4.26 7.29-10.16 7.29Z"></path><g fill="#6e46ae"><path d="M20.42 9.33v2.38c0 .45-.13 1.09-.39 1.73a2.069 2.069 0 0 1-1.93-2.07c0-1.14.93-2.06 2.07-2.06.08 0 .17 0 .25.01Zm-.03 11.01c0 .09.01.18.01.26v3.85c-.09 0-.17.01-.26.01a2.066 2.066 0 0 1 .01-4.13c.08 0 .16 0 .24.01Zm-3.01 5.49h2.97c-.09.71-.38 1.44-.83 2.15l-2.14-2.15Zm2.95-19.42-.15.15-2.75-2.76h1.52c.71.85 1.18 1.75 1.37 2.61Zm-2.92 8.4h1.78c-.27.32-.59.6-.96.82l-.82-.82ZM14.69 1.04l2.75 2.76-5.51-.01 2.76-2.75zm-.03 11.01 2.75 2.76-5.51-.01 2.76-2.75zm-.02 11.02 2.74 2.76-5.5-.02 2.76-2.74zm.04-17.9a2.066 2.066 0 1 1-.011 4.131 2.066 2.066 0 0 1 .011-4.131Zm-.03 11.01a2.066 2.066 0 1 1-.011 4.131 2.066 2.066 0 0 1 .011-4.131Zm-.02 11.02a2.066 2.066 0 1 1-.011 4.131 2.066 2.066 0 0 1 .011-4.131Z"></path><path d="M11.93 3.79 9.17 6.53 6.42 3.77l5.51.02zM11.9 14.8l-2.76 2.75-2.73-2.75v-.01l5.49.01zm-.02 11.01-2.76 2.75-2.75-2.76 3.88.01h1.63zM11.23.04c.01.1.02.2.02.31a2.066 2.066 0 0 1-4.13.07C8.11.15 9.18 0 10.31 0c.31 0 .62.01.92.04Zm-.22 32.54c-.26.02-.52.02-.78.02-1.01 0-1.97-.13-2.86-.34.37-.57 1.01-.95 1.74-.95.86 0 1.59.53 1.9 1.27ZM8.3 13.23H10c-.26.12-.55.19-.85.19-.3 0-.59-.07-.85-.19Zm.25-3.85v.71H7.53c.26-.33.61-.58 1.02-.71Zm-.03 13.13v1.83c-.8-.25-1.39-.97-1.44-1.83h1.44ZM4.26 1.6l2.16 2.17H1.65A9.9 9.9 0 0 1 4.26 1.6Zm2.15 13.19v.01l-.01-.01h.01zm-2.79 8.25 2.75 2.76-5.51-.01 2.76-2.75zm.05-17.9a2.066 2.066 0 1 1-.011 4.131A2.066 2.066 0 0 1 3.67 5.14Zm-.06 22.03a2.062 2.062 0 0 1 .83 3.95c-1.16-.65-2.13-1.46-2.86-2.33a2.07 2.07 0 0 1 2.02-1.63ZM.86 25.79l-.6.59c-.05-.2-.1-.4-.12-.59h.72Z"></path></g><path fill="#230939" d="M14.3 42.46h1.28v-2.6l3.23 2.67v-5.31h-1.28v2.6l-3.23-2.67v5.31zm10.47-5.24v1.22h1.2v4.02h1.32v-4.02h1.21v-1.22h-3.73zm5.1 0v5.24h3.31v-1.22h-2.01v-.82h1.58v-1.19h-1.58v-.79h1.98v-1.22h-3.28zm7.05 1.61h-.8v-1.29h.8c.42 0 .7.28.7.65 0 .32-.23.65-.7.65m.75 1.06c.28-.1 1.24-.53 1.24-1.74 0-.88-.69-1.86-2.19-1.86h-1.93v6.16h1.33v-2.43h.07l1.91 2.43h1.59l-2.02-2.56ZM3 39l-3-3v6.46h1.33v-3.25L3 40.87l1.66-1.66v3.25h1.33V36L3 39zm18.98 3.54c-1.2 0-1.82-.67-1.92-.77l.67-.95c.11.09.58.51 1.21.51.43 0 .55-.2.55-.37s-.13-.32-.58-.49l-.4-.15c-.73-.27-1.2-.78-1.2-1.54 0-.93.74-1.63 1.8-1.63.95 0 1.49.46 1.54.51l-.63.98a1.67 1.67 0 0 0-.88-.28c-.37 0-.54.16-.54.35 0 .25.22.35.61.49l.36.13c.75.28 1.23.86 1.23 1.55 0 .95-.75 1.66-1.83 1.66"></path><path fill="#00b6b4" d="M10.15 41.27c-.8 0-1.42-.64-1.42-1.43s.62-1.43 1.42-1.43 1.42.64 1.42 1.43-.62 1.43-1.42 1.43m0-4.12c-1.52 0-2.72 1.21-2.72 2.69s1.2 2.69 2.72 2.69 2.72-1.21 2.72-2.69-1.2-2.69-2.72-2.69"></path><path fill="#230939" d="M21.09 18.81c-.11-.02-.19-.03-.26-.06v-.52h.3c.21 0 .32-.11.32-.32v-3.83h.72v3.86c0 .26-.06.47-.18.64-.12.17-.32.26-.6.26-.09 0-.19 0-.29-.02Zm.36-6.06h.72v.71h-.72v-.71Zm1.49 4.72c-.19-.15-.28-.41-.28-.77 0-.45.15-.77.46-.95s.74-.27 1.31-.27v-.4a.64.64 0 0 0-.09-.36c-.06-.08-.18-.13-.34-.13s-.28.04-.35.13c-.07.09-.11.19-.11.31v.09h-.71v-.15c0-.31.11-.54.32-.72.22-.17.5-.26.85-.26.39 0 .67.09.87.27s.29.43.29.76v1.83c0 .08.02.14.05.18.04.04.08.06.13.06h.18v.5c-.13.07-.28.1-.44.1s-.28-.04-.39-.12a.59.59 0 0 1-.22-.33h-.03c-.1.15-.22.27-.36.35-.14.08-.31.12-.52.12-.23 0-.44-.07-.62-.22Zm1.33-.61c.11-.15.16-.34.16-.58v-.24c-.32 0-.57.04-.75.13-.18.09-.28.25-.28.47 0 .3.14.44.42.44.19 0 .34-.07.44-.22Zm1.73.61c-.19-.15-.28-.41-.28-.77 0-.45.15-.77.46-.95s.74-.27 1.31-.27v-.4a.64.64 0 0 0-.09-.36c-.06-.08-.18-.13-.34-.13s-.28.04-.35.13c-.07.09-.11.19-.11.31v.09h-.71v-.15c0-.31.11-.54.32-.72.22-.17.5-.26.85-.26.39 0 .67.09.87.27s.29.43.29.76v1.83c0 .08.02.14.05.18.04.04.08.06.13.06h.18v.5c-.13.07-.28.1-.44.1s-.28-.04-.39-.12a.59.59 0 0 1-.22-.33h-.03c-.1.15-.22.27-.36.35-.14.08-.31.12-.52.12-.23 0-.44-.07-.62-.22Zm1.33-.61c.11-.15.16-.34.16-.58v-.24c-.32 0-.57.04-.75.13-.18.09-.28.25-.28.47 0 .3.14.44.42.44.19 0 .34-.07.44-.22Zm1.7-2.78h.59l.09.5h.04c.12-.39.32-.58.6-.58.08 0 .15 0 .21.02s.09.03.1.03v.71h-.25c-.2 0-.36.06-.48.19s-.18.34-.18.63v2.04h-.72v-3.54Z"></path></svg>