<svg width="148" height="30" viewBox="0 0 148 30" fill="none" xmlns="http://www.w3.org/2000/svg">
<g clip-path="url(#clip0_2174_349)">
<path d="M25.608 4.399C24.2197 3.0067 22.5707 1.90158 20.7552 1.14678C18.9396 0.391984 16.9932 0.00230191 15.027 0C6.719 0 0 6.679 0 15C0 23.322 6.72 30 14.973 30C23.281 30 29.947 23.269 30 15C29.9967 11.0243 28.4173 7.21214 25.608 4.399Z" fill="#FF9921"/>
<path d="M12.9634 16.114C12.9634 19.347 11.6934 22.421 9.41741 24.753C9.14749 25.0275 8.7815 25.1865 8.39662 25.1964C8.01174 25.2063 7.63807 25.0663 7.35441 24.806C7.08045 24.5352 6.92183 24.1689 6.91177 23.7839C6.9017 23.3988 7.04097 23.0247 7.30041 22.74C8.17206 21.8709 8.86371 20.8383 9.33577 19.7015C9.80782 18.5647 10.051 17.3459 10.0514 16.115C10.0514 13.623 9.04641 11.291 7.30141 9.542C6.71841 8.959 6.77141 8.058 7.35341 7.475C7.93541 6.892 8.83541 6.945 9.41641 7.528C11.6924 9.754 13.0144 12.881 12.9624 16.115L12.9634 16.114ZM12.1164 5.936C12.1164 4.346 13.4394 3.021 15.0264 3.021C16.6134 3.021 17.9364 4.346 17.9364 5.936C17.9364 7.526 16.6134 8.851 15.0264 8.851C13.3864 8.851 12.1164 7.579 12.1164 5.936ZM23.0164 24.17C22.8584 24.7 22.4344 25.125 21.9064 25.23C21.3764 25.337 20.7944 25.125 20.4764 24.7C15.7674 19.93 15.7674 12.245 20.5294 7.474C20.9004 7.103 21.4294 6.944 21.9584 7.103C22.4724 7.246 22.8734 7.649 23.0164 8.163C23.0698 8.4179 23.0591 8.68206 22.9853 8.93181C22.9114 9.18156 22.7768 9.40908 22.5934 9.594C20.8474 11.344 19.8944 13.676 19.8944 16.167C19.8944 18.658 20.8474 20.99 22.5934 22.739C22.9634 23.058 23.1754 23.639 23.0164 24.17Z" fill="white"/>
<path fill-rule="evenodd" clip-rule="evenodd" d="M58.874 1.727C58.874 2.032 59.024 2.184 59.325 2.184H60.579C60.729 2.184 60.829 2.134 60.879 2.083C60.979 2.032 60.979 1.931 60.979 1.778V0.458C60.979 0.152 60.829 0 60.579 0H59.325C59.025 0 58.875 0.152 58.875 0.457L58.874 1.727ZM60.779 3.404C60.829 3.404 60.929 3.404 60.979 3.455L60.98 3.456C61.03 3.506 61.08 3.557 61.08 3.658V12.6C61.08 12.803 60.98 12.905 60.78 12.905H59.224C59.024 12.905 58.924 12.803 58.924 12.6V5.385H55.865V10.008C55.865 10.364 55.915 10.618 56.015 10.821C56.116 11.024 56.317 11.126 56.617 11.126H56.868C56.904 11.138 56.938 11.147 56.968 11.156C57.064 11.182 57.131 11.201 57.169 11.278C57.219 11.328 57.219 11.431 57.219 11.533V12.599C57.219 12.853 57.019 12.955 56.667 12.955C56.117 12.955 55.614 12.802 55.163 12.599C54.712 12.345 54.361 12.04 54.11 11.634C53.86 11.177 53.76 10.719 53.76 10.161V5.335H52.907C52.857 5.335 52.757 5.285 52.707 5.233C52.6442 5.16314 52.6086 5.07295 52.607 4.979V3.71C52.6086 3.61605 52.6442 3.52586 52.707 3.456C52.757 3.405 52.807 3.354 52.907 3.354H53.76V1.88C53.76 1.728 53.76 1.677 53.81 1.626C53.838 1.598 53.882 1.585 53.933 1.57C53.973 1.56 54.017 1.547 54.06 1.525L55.565 1.067H55.665C55.715 1.067 55.765 1.067 55.815 1.169C55.865 1.27 55.865 1.322 55.865 1.423V3.404H60.779ZM51.003 3.404C51.203 3.404 51.304 3.505 51.304 3.708V12.598C51.304 12.802 51.204 12.904 51.004 12.904H49.699C49.599 12.904 49.499 12.852 49.399 12.751C49.3499 12.7059 49.3111 12.6508 49.2852 12.5894C49.2593 12.5279 49.247 12.4616 49.249 12.395V11.785C48.871 12.1731 48.4187 12.4811 47.9191 12.6907C47.4195 12.9003 46.8828 13.0072 46.341 13.005C45.5318 13.0077 44.7361 12.7973 44.034 12.395C43.282 11.989 42.731 11.43 42.279 10.668C41.828 9.906 41.627 9.094 41.627 8.179C41.627 7.315 41.877 6.503 42.279 5.741C42.679 4.979 43.282 4.42 43.984 3.963C44.686 3.505 45.488 3.303 46.34 3.303C46.992 3.303 47.544 3.403 48.045 3.607C48.496 3.81 48.947 4.166 49.349 4.623L49.499 3.708C49.514 3.664 49.524 3.628 49.532 3.598C49.553 3.527 49.564 3.491 49.599 3.455C49.649 3.404 49.699 3.404 49.799 3.404H51.003ZM38.418 3.759C38.919 4.013 39.37 4.47 39.722 5.079C40.072 5.689 40.222 6.451 40.222 7.315V12.446C40.222 12.649 40.122 12.751 39.922 12.751H38.468C38.268 12.751 38.167 12.649 38.167 12.446V7.316C38.167 6.96 38.117 6.604 37.917 6.299C37.7194 5.99759 37.4638 5.73855 37.165 5.537C36.813 5.334 36.512 5.232 36.112 5.232C35.811 5.232 35.459 5.334 35.159 5.486C34.808 5.639 34.557 5.893 34.357 6.248C34.157 6.604 34.056 7.01 34.056 7.417V12.447C34.056 12.547 34.056 12.649 33.956 12.7C33.856 12.751 33.755 12.802 33.654 12.802H32.301C32.101 12.802 32 12.7 32 12.497V3.708C32 3.505 32.1 3.403 32.3 3.403H33.304C33.404 3.403 33.554 3.455 33.604 3.505C33.654 3.555 33.705 3.658 33.755 3.759L33.855 4.826C34.206 4.318 34.658 3.962 35.159 3.708C35.661 3.455 36.212 3.353 36.763 3.353C37.315 3.353 37.866 3.455 38.418 3.759ZM49.148 8.129C49.248 8.687 49.098 9.145 48.847 9.602C48.597 10.059 48.295 10.414 47.844 10.668C47.423 10.9316 46.9367 11.0726 46.44 11.075C45.939 11.075 45.488 10.923 45.036 10.669C44.6165 10.4043 44.2713 10.0371 44.033 9.602C43.783 9.145 43.683 8.637 43.683 8.128C43.683 7.57 43.783 7.062 44.033 6.656C44.284 6.198 44.635 5.842 45.036 5.589C45.4387 5.32577 45.9089 5.18445 46.39 5.182C46.891 5.182 47.343 5.334 47.794 5.589C48.195 5.842 48.546 6.199 48.797 6.656C49.047 7.113 49.147 7.57 49.147 8.128L49.148 8.129ZM70.005 3.963C70.757 4.369 71.309 4.979 71.76 5.741C72.211 6.503 72.411 7.315 72.411 8.179C72.411 9.042 72.211 9.856 71.76 10.618C71.3369 11.3509 70.7326 11.9628 70.005 12.395C69.2804 12.8364 68.4464 13.0655 67.598 13.056C66.75 13.0656 65.9164 12.837 65.192 12.396C64.4642 11.9636 63.8599 11.3513 63.437 10.618C63.0004 9.88004 62.7749 9.03636 62.785 8.179C62.785 7.315 62.985 6.503 63.437 5.741C63.8599 5.0077 64.4643 4.39544 65.192 3.963C65.9164 3.52203 66.75 3.29335 67.598 3.303C68.451 3.303 69.253 3.505 70.005 3.963ZM70.355 8.078C70.355 8.637 70.255 9.145 70.005 9.602C69.754 10.059 69.453 10.415 69.052 10.669C68.6309 10.9323 68.1447 11.0729 67.648 11.075C67.1514 11.0729 66.6651 10.9323 66.244 10.669C65.843 10.414 65.492 10.059 65.292 9.602C65.041 9.145 64.94 8.687 64.94 8.128C64.94 7.621 65.04 7.113 65.292 6.656C65.542 6.198 65.842 5.894 66.244 5.589C66.665 5.32537 67.1513 5.18442 67.648 5.182C68.145 5.177 68.633 5.318 69.052 5.589C69.452 5.842 69.804 6.199 70.004 6.656C70.255 7.113 70.355 7.57 70.355 8.078ZM80.484 3.759C80.984 4.013 81.436 4.47 81.837 5.079C82.188 5.689 82.338 6.451 82.338 7.315V12.446C82.338 12.649 82.238 12.751 82.038 12.751H80.584C80.384 12.751 80.283 12.649 80.283 12.446V7.316C80.283 6.96 80.233 6.604 80.033 6.299C79.8351 5.99751 79.5791 5.73847 79.28 5.537C78.929 5.334 78.628 5.232 78.227 5.232C77.927 5.232 77.575 5.334 77.274 5.486C76.924 5.639 76.673 5.893 76.472 6.248C76.272 6.604 76.172 7.01 76.172 7.417V12.447C76.172 12.547 76.172 12.649 76.072 12.7C75.972 12.751 75.871 12.802 75.77 12.802H74.417C74.217 12.802 74.116 12.7 74.116 12.497V3.708C74.116 3.505 74.216 3.403 74.416 3.403H75.42C75.493 3.403 75.539 3.431 75.598 3.465L75.67 3.505C75.72 3.555 75.768 3.653 75.817 3.752L75.821 3.759L75.921 4.826C76.2538 4.34913 76.7021 3.96447 77.224 3.708C77.726 3.455 78.277 3.353 78.829 3.353C79.38 3.353 79.932 3.455 80.484 3.759ZM93.368 3.709C93.368 3.505 93.268 3.404 93.068 3.404H91.864C91.764 3.404 91.714 3.404 91.664 3.454C91.614 3.504 91.564 3.557 91.564 3.708L91.413 4.623C91.013 4.166 90.561 3.81 90.11 3.607C89.608 3.404 89.057 3.302 88.405 3.302C87.553 3.302 86.75 3.505 86.049 3.962C85.347 4.42 84.745 4.979 84.344 5.741C83.943 6.503 83.692 7.315 83.692 8.179C83.692 9.094 83.892 9.906 84.344 10.669C84.794 11.43 85.347 11.989 86.099 12.395C86.8008 12.7971 87.5961 13.0075 88.405 13.005C88.9468 13.0071 89.4834 12.9002 89.983 12.6906C90.4826 12.481 90.9349 12.173 91.313 11.785V12.395C91.311 12.4616 91.3233 12.5279 91.3492 12.5894C91.3751 12.6508 91.4139 12.7059 91.463 12.751C91.563 12.852 91.663 12.904 91.764 12.904H93.068C93.268 12.904 93.368 12.802 93.368 12.599V3.709ZM90.911 9.602C91.162 9.145 91.312 8.687 91.211 8.128C91.211 7.57 91.111 7.113 90.861 6.656C90.6229 6.22078 90.2777 5.85352 89.858 5.589C89.407 5.334 88.956 5.182 88.455 5.182C87.953 5.182 87.501 5.334 87.101 5.589C86.7 5.842 86.349 6.199 86.098 6.656C85.847 7.062 85.748 7.57 85.748 8.128C85.748 8.637 85.847 9.145 86.098 9.602C86.348 10.059 86.7 10.414 87.101 10.668C87.552 10.923 88.003 11.075 88.504 11.075C89.0007 11.0729 89.4869 10.9323 89.908 10.669C90.359 10.414 90.66 10.059 90.911 9.602ZM97.48 0.712C97.379 0.66 97.33 0.66 97.228 0.66H95.724C95.624 0.66 95.574 0.71 95.524 0.76V0.762C95.473 0.812 95.423 0.914 95.423 1.016V12.547C95.423 12.751 95.523 12.852 95.723 12.852H97.228C97.3209 12.85 97.4098 12.8141 97.478 12.751C97.5408 12.6811 97.5763 12.5909 97.578 12.497V0.965C97.576 0.899815 97.5551 0.836608 97.518 0.783L97.478 0.711L97.48 0.712ZM107.808 5.487C108.259 6.198 108.51 7.112 108.46 8.23C108.46 8.433 108.409 8.636 108.359 8.738C108.31 8.839 108.259 8.941 108.159 8.941C108.059 8.991 107.908 8.991 107.708 8.991H101.19C101.29 9.449 101.49 9.805 101.741 10.161C101.992 10.465 102.293 10.719 102.694 10.922C103.095 11.075 103.496 11.176 103.948 11.176C104.298 11.176 104.599 11.126 104.85 11.075C104.931 11.042 105.007 11.015 105.077 10.989C105.225 10.935 105.35 10.889 105.452 10.821C105.508 10.783 105.571 10.745 105.639 10.704C105.752 10.636 105.877 10.561 106.003 10.465L106.204 10.313C106.254 10.262 106.354 10.262 106.404 10.262C106.454 10.262 106.505 10.312 106.554 10.363L107.307 11.278C107.356 11.328 107.407 11.43 107.407 11.481C107.407 11.532 107.407 11.633 107.307 11.685C106.805 12.192 106.254 12.548 105.702 12.751C105.14 12.9546 104.546 13.0579 103.948 13.056C103.115 13.0656 102.298 12.8366 101.591 12.396C100.863 11.9636 100.259 11.3514 99.836 10.618C99.3994 9.88006 99.1739 9.03637 99.184 8.179C99.184 7.315 99.384 6.503 99.786 5.741C100.187 4.979 100.789 4.42 101.49 3.963C102.193 3.505 102.995 3.303 103.897 3.303C104.649 3.303 105.351 3.505 106.053 3.861C106.774 4.23512 107.38 4.79689 107.808 5.487ZM101.291 7.163V7.113C101.441 6.756 101.591 6.401 101.892 6.096C102.133 5.79102 102.442 5.54738 102.795 5.385C103.146 5.182 103.497 5.131 103.898 5.131C104.499 5.131 105.001 5.334 105.452 5.69C105.903 6.046 106.254 6.553 106.455 7.163H101.291ZM40.524 19.203C40.674 19.203 40.724 19.253 40.674 19.355C40.674 19.405 40.674 19.507 40.624 19.609L37.064 28.346C37.0388 28.4192 36.9917 28.483 36.9291 28.5286C36.8665 28.5742 36.7914 28.5995 36.714 28.601H35.911C35.761 28.601 35.661 28.549 35.56 28.346L32.05 19.66C32 19.609 32 19.507 32 19.457C32 19.356 32.05 19.305 32.099 19.255L32.101 19.253C32.201 19.203 32.251 19.203 32.351 19.203H33.856C34.006 19.203 34.156 19.304 34.206 19.507L36.362 25.553L38.518 19.457C38.568 19.304 38.668 19.202 38.869 19.202L40.524 19.203ZM50.602 19.507C50.602 19.304 50.502 19.202 50.301 19.202H49.098C48.998 19.202 48.948 19.202 48.898 19.252C48.861 19.289 48.851 19.325 48.83 19.398L48.797 19.508L48.647 20.422C48.245 19.964 47.794 19.609 47.343 19.405C46.891 19.202 46.29 19.1 45.638 19.1C44.786 19.1 43.984 19.304 43.282 19.761C42.58 20.218 41.978 20.777 41.577 21.539C41.176 22.301 40.926 23.114 40.926 23.977C40.926 24.892 41.126 25.705 41.577 26.467C42.028 27.229 42.58 27.787 43.332 28.194C44.0338 28.5961 44.8291 28.8065 45.638 28.804C46.1798 28.8062 46.7165 28.6993 47.2161 28.4897C47.7157 28.2801 48.168 27.9721 48.546 27.584V28.194C48.5441 28.2605 48.5565 28.3266 48.5824 28.3878C48.6083 28.4491 48.647 28.504 48.696 28.549C48.796 28.651 48.897 28.702 48.997 28.702H50.301C50.501 28.702 50.601 28.6 50.601 28.397L50.602 19.507ZM48.145 25.4C48.395 24.943 48.545 24.485 48.445 23.926C48.445 23.367 48.345 22.91 48.095 22.453C47.8568 22.0179 47.5116 21.6506 47.092 21.386C46.641 21.132 46.19 20.98 45.688 20.98C45.187 20.98 44.735 21.132 44.334 21.386C43.934 21.64 43.582 21.996 43.332 22.453C43.081 22.86 42.98 23.367 42.98 23.926C42.98 24.434 43.08 24.943 43.332 25.4C43.582 25.857 43.934 26.212 44.334 26.467C44.785 26.72 45.237 26.872 45.738 26.872C46.2346 26.8702 46.7208 26.7299 47.142 26.467C47.593 26.212 47.894 25.857 48.145 25.4ZM60.127 27.077L59.325 26.112C59.275 26.062 59.225 26.011 59.175 26.011C59.125 26.011 59.024 26.011 58.974 26.061C58.322 26.569 57.62 26.823 56.968 26.823C56.467 26.823 56.016 26.721 55.564 26.416C55.1448 26.1517 54.7999 25.7848 54.562 25.35C54.312 24.892 54.211 24.385 54.211 23.826C54.213 23.291 54.351 22.766 54.612 22.302C54.862 21.844 55.214 21.489 55.614 21.235C56.0169 20.9723 56.487 20.8314 56.968 20.829C57.324 20.829 57.678 20.881 58.021 20.981C58.372 21.082 58.673 21.286 59.024 21.54C59.074 21.59 59.124 21.59 59.174 21.59C59.274 21.59 59.324 21.54 59.324 21.489L60.077 20.32C60.127 20.27 60.127 20.22 60.127 20.168C60.127 20.118 60.077 20.016 60.027 19.965C59.576 19.61 59.124 19.305 58.623 19.101C58.0993 18.8861 57.5319 18.7994 56.968 18.848C56.116 18.848 55.314 19.051 54.612 19.508C53.86 19.914 53.308 20.524 52.857 21.286C52.4205 22.0236 52.195 22.867 52.205 23.724C52.205 24.639 52.405 25.451 52.857 26.214C53.28 26.9472 53.8843 27.5595 54.612 27.992C55.364 28.398 56.166 28.652 57.019 28.652C57.5897 28.6564 58.1544 28.5352 58.673 28.297C59.224 28.093 59.675 27.788 60.077 27.483C60.177 27.383 60.227 27.331 60.227 27.28C60.227 27.23 60.177 27.128 60.127 27.077ZM70.255 19.202C70.455 19.202 70.556 19.304 70.556 19.507V28.397C70.556 28.601 70.456 28.702 70.256 28.702H68.95C68.85 28.702 68.75 28.652 68.65 28.549C68.601 28.504 68.5623 28.4491 68.5364 28.3878C68.5105 28.3266 68.4981 28.2605 68.5 28.194V27.584C68.122 27.9721 67.6696 28.2801 67.1701 28.4897C66.6705 28.6993 66.1338 28.8062 65.592 28.804C64.7828 28.8067 63.9871 28.5963 63.285 28.194C62.533 27.787 61.982 27.229 61.53 26.467C61.08 25.705 60.878 24.892 60.878 23.977C60.878 23.114 61.129 22.301 61.53 21.539C61.931 20.777 62.533 20.219 63.235 19.761C63.937 19.304 64.739 19.101 65.592 19.101C66.243 19.101 66.795 19.202 67.296 19.405C67.747 19.609 68.198 19.965 68.6 20.422L68.75 19.507C68.765 19.462 68.775 19.427 68.784 19.397C68.804 19.325 68.814 19.289 68.85 19.253C68.9 19.203 68.95 19.203 69.051 19.203H70.254L70.255 19.202ZM68.4 23.926C68.5 24.486 68.35 24.943 68.099 25.4C67.849 25.857 67.548 26.212 67.097 26.467C66.6755 26.7302 66.1889 26.8704 65.692 26.872C65.192 26.872 64.74 26.72 64.289 26.467C63.8695 26.2023 63.5243 25.8351 63.286 25.4C63.036 24.943 62.935 24.434 62.935 23.926C62.935 23.367 63.035 22.86 63.285 22.453C63.5236 22.0178 63.8691 21.6506 64.289 21.386C64.6916 21.1235 65.1614 20.9826 65.642 20.98C66.144 20.98 66.595 21.132 67.046 21.386C67.447 21.64 67.798 21.996 68.049 22.453C68.299 22.91 68.4 23.367 68.4 23.926ZM85.948 19.203C86.199 19.203 86.299 19.304 86.098 19.507V28.397C86.098 28.601 85.998 28.702 85.798 28.702H84.845C84.781 28.6995 84.7191 28.6783 84.667 28.641C84.6431 28.6269 84.6188 28.6135 84.594 28.601C84.5478 28.5768 84.5093 28.5402 84.4828 28.4954C84.4563 28.4505 84.4429 28.3991 84.444 28.347L84.244 27.432C83.642 28.347 82.74 28.804 81.536 28.804C80.935 28.804 80.383 28.652 79.831 28.397C79.2642 28.0938 78.7951 27.6361 78.478 27.077C78.127 26.467 77.926 25.705 77.926 24.791V21.184H75.018V25.806C75.018 26.163 75.068 26.416 75.168 26.62C75.268 26.823 75.469 26.924 75.77 26.924H76.021C76.057 26.937 76.091 26.946 76.121 26.954C76.217 26.981 76.284 27 76.321 27.077C76.371 27.127 76.371 27.229 76.371 27.33V28.397C76.371 28.652 76.171 28.753 75.821 28.753C75.269 28.753 74.768 28.601 74.317 28.397C73.865 28.144 73.514 27.89 73.264 27.432C73.013 26.975 72.912 26.518 72.912 25.959V21.133H72.06C71.9846 21.1199 71.9149 21.0843 71.86 21.031C71.7972 20.9611 71.7616 20.8709 71.76 20.777V19.507C71.76 19.406 71.81 19.304 71.86 19.253C71.91 19.202 71.96 19.152 72.06 19.152H72.912V17.679C72.912 17.526 72.912 17.476 72.962 17.424C72.991 17.396 73.035 17.384 73.085 17.369C73.1291 17.358 73.172 17.3425 73.213 17.323L74.717 16.866H74.817C74.867 16.866 74.918 16.916 74.968 16.967C75.018 17.069 75.018 17.12 75.018 17.221V19.203H79.731C79.931 19.203 80.032 19.304 80.032 19.507V24.689C80.082 25.096 80.132 25.451 80.333 25.756C80.533 26.061 80.784 26.315 81.085 26.467C81.435 26.62 81.787 26.721 82.188 26.721C82.388 26.721 82.689 26.671 82.99 26.518C83.29 26.366 83.592 26.111 83.793 25.756C84.043 25.401 84.143 24.994 84.143 24.435V19.507C84.143 19.304 84.243 19.203 84.444 19.203H85.948ZM94.924 20.117C94.673 19.863 94.322 19.66 93.871 19.405C93.4363 19.1809 92.956 19.0594 92.467 19.05C92.016 19.05 91.564 19.152 91.213 19.405C90.813 19.609 90.511 19.914 90.261 20.32L90.111 19.507C90.098 19.47 90.089 19.437 90.081 19.405C90.054 19.308 90.036 19.241 89.961 19.202C89.91 19.152 89.81 19.152 89.659 19.152H88.607C88.406 19.152 88.306 19.253 88.306 19.457V28.245C88.306 28.448 88.406 28.55 88.606 28.55H90.111C90.311 28.55 90.411 28.448 90.411 28.245V23.165C90.411 22.708 90.511 22.301 90.661 21.996C90.812 21.692 91.063 21.438 91.314 21.286C91.614 21.133 91.865 21.031 92.217 21.031C92.507 21.028 92.797 21.08 93.068 21.184C93.319 21.285 93.57 21.438 93.82 21.59C93.848 21.604 93.87 21.617 93.893 21.63C93.951 21.665 93.998 21.692 94.071 21.692C94.171 21.692 94.221 21.641 94.271 21.59L94.974 20.625C95.024 20.575 95.074 20.472 95.074 20.422C95.074 20.32 95.024 20.219 94.924 20.117ZM102.293 19.609C103.022 19.9756 103.618 20.5618 103.997 21.285C104.448 21.996 104.699 22.911 104.699 23.978C104.699 24.181 104.649 24.384 104.599 24.486C104.56 24.5763 104.488 24.6487 104.398 24.689C104.298 24.739 104.148 24.739 103.947 24.739H97.429C97.529 25.197 97.729 25.553 97.981 25.909C98.231 26.213 98.532 26.467 98.933 26.67C99.334 26.823 99.736 26.924 100.187 26.924C100.538 26.924 100.839 26.874 101.089 26.823C101.17 26.79 101.246 26.763 101.317 26.736C101.464 26.683 101.589 26.637 101.691 26.568C101.746 26.531 101.808 26.494 101.875 26.454C101.989 26.385 102.115 26.309 102.242 26.213L102.443 26.061C102.493 26.01 102.594 26.01 102.643 26.01C102.693 26.01 102.744 26.06 102.794 26.111L103.546 27.026C103.596 27.076 103.646 27.178 103.646 27.229C103.646 27.279 103.646 27.382 103.546 27.432C103.045 27.94 102.493 28.296 101.941 28.499C101.379 28.7027 100.785 28.806 100.187 28.804C99.3544 28.8136 98.5365 28.5845 97.83 28.144C97.1022 27.7112 96.4978 27.0986 96.075 26.365C95.6389 25.6273 95.4137 24.7839 95.424 23.927C95.424 23.063 95.624 22.25 96.025 21.488C96.427 20.727 97.028 20.168 97.73 19.71C98.432 19.253 99.234 19.05 100.136 19.05C100.888 19.05 101.591 19.253 102.293 19.61V19.609ZM97.579 22.961V22.911C97.729 22.555 97.879 22.199 98.181 21.895C98.481 21.59 98.732 21.335 99.083 21.183C99.434 20.98 99.785 20.929 100.187 20.929C100.788 20.929 101.289 21.133 101.741 21.489C102.192 21.843 102.543 22.352 102.744 22.962L97.579 22.961ZM113.724 19.761C114.376 20.168 115.028 20.777 115.379 21.488C115.73 22.2 115.93 23.012 115.93 23.927C115.93 24.841 115.73 25.654 115.328 26.416C114.956 27.1402 114.381 27.7405 113.674 28.144C112.975 28.5519 112.178 28.7627 111.368 28.754C110.867 28.754 110.365 28.601 109.864 28.397C109.355 28.1887 108.894 27.8776 108.51 27.483L108.36 28.194C108.31 28.347 108.259 28.448 108.209 28.499C108.141 28.5625 108.051 28.5988 107.958 28.601H106.705C106.505 28.601 106.404 28.499 106.404 28.296V16.714C106.404 16.51 106.505 16.409 106.705 16.409H108.209C108.409 16.409 108.51 16.509 108.51 16.714V20.269C108.882 19.8964 109.326 19.6029 109.814 19.406C110.307 19.2027 110.835 19.099 111.368 19.101C112.27 19.101 113.022 19.355 113.724 19.761ZM113.875 23.926C113.875 24.486 113.775 24.993 113.575 25.4C113.324 25.857 113.023 26.212 112.622 26.467C112.204 26.7364 111.716 26.8773 111.218 26.872C110.707 26.8633 110.206 26.7239 109.764 26.467C109.319 26.2187 108.953 25.8485 108.711 25.4C108.457 24.9498 108.319 24.4431 108.31 23.926C108.31 23.367 108.461 22.91 108.711 22.453C108.954 22.003 109.32 21.633 109.764 21.386C110.215 21.132 110.666 20.98 111.218 20.98C111.719 20.98 112.17 21.132 112.572 21.386C112.973 21.64 113.274 21.996 113.524 22.453C113.775 22.91 113.875 23.419 113.875 23.926ZM126.409 19.202C126.609 19.202 126.71 19.304 126.71 19.507V28.397C126.71 28.601 126.609 28.702 126.409 28.702H125.105C125.005 28.702 124.905 28.652 124.804 28.549C124.755 28.5041 124.716 28.4491 124.69 28.3878C124.664 28.3266 124.652 28.2605 124.654 28.194V27.584C124.276 27.9722 123.824 28.2803 123.324 28.4899C122.825 28.6995 122.288 28.8064 121.746 28.804C120.937 28.8066 120.142 28.5962 119.44 28.194C118.688 27.787 118.136 27.229 117.685 26.467C117.234 25.705 117.033 24.892 117.033 23.977C117.033 23.114 117.284 22.301 117.685 21.539C118.086 20.777 118.688 20.219 119.389 19.761C120.091 19.304 120.893 19.101 121.746 19.101C122.398 19.101 122.949 19.202 123.451 19.405C123.902 19.609 124.353 19.965 124.754 20.422L124.905 19.507L124.938 19.397C124.959 19.325 124.969 19.289 125.005 19.253C125.055 19.203 125.105 19.203 125.206 19.203L126.409 19.202ZM124.554 23.926C124.654 24.486 124.504 24.943 124.254 25.4C124.003 25.857 123.702 26.212 123.251 26.467C122.83 26.7298 122.344 26.87 121.847 26.872C121.345 26.872 120.894 26.72 120.443 26.467C120.024 26.2022 119.678 25.835 119.44 25.4C119.189 24.943 119.089 24.434 119.089 23.926C119.089 23.367 119.189 22.86 119.44 22.453C119.678 22.018 120.024 21.6508 120.443 21.386C120.846 21.1234 121.315 20.9825 121.796 20.98C122.298 20.98 122.749 21.132 123.201 21.386C123.601 21.64 123.953 21.996 124.203 22.453C124.454 22.91 124.554 23.367 124.554 23.926ZM135.183 19.557C135.685 19.812 136.136 20.269 136.537 20.878C136.889 21.488 137.039 22.25 137.039 23.114V28.244C137.039 28.448 136.938 28.549 136.738 28.549H135.284C135.084 28.549 134.983 28.448 134.983 28.244V23.114C134.983 22.758 134.933 22.402 134.732 22.098C134.535 21.7962 134.279 21.5371 133.98 21.336C133.629 21.133 133.329 21.031 132.927 21.031C132.626 21.031 132.276 21.133 131.975 21.285C131.624 21.437 131.373 21.691 131.173 22.047C130.974 22.404 130.87 22.8063 130.872 23.215V28.245C130.872 28.346 130.872 28.448 130.772 28.498L130.766 28.501C130.668 28.551 130.569 28.601 130.471 28.601H129.117C128.917 28.601 128.816 28.499 128.816 28.296V19.506C128.816 19.304 128.917 19.202 129.117 19.202H130.12C130.194 19.202 130.24 19.229 130.3 19.265L130.37 19.304C130.42 19.354 130.47 19.454 130.519 19.554L130.521 19.557L130.621 20.624C130.954 20.1472 131.403 19.7629 131.925 19.507C132.426 19.253 132.978 19.151 133.529 19.151C134.081 19.151 134.632 19.253 135.183 19.557ZM147.366 28.347C147.366 28.245 147.316 28.195 147.266 28.144L143.305 23.165L146.664 19.66C146.714 19.61 146.714 19.558 146.714 19.457C146.714 19.355 146.664 19.305 146.614 19.253C146.546 19.1903 146.457 19.1547 146.364 19.153H144.809C144.709 19.153 144.609 19.153 144.559 19.203C144.51 19.203 144.415 19.298 144.363 19.35L144.358 19.355L140.999 22.962V16.764C140.999 16.561 140.898 16.46 140.698 16.46H139.194C138.993 16.46 138.893 16.561 138.893 16.764V28.347C138.893 28.55 138.993 28.652 139.194 28.652H140.748C140.949 28.652 141.049 28.55 141.049 28.347V25.502L141.951 24.587L144.86 28.397L145.06 28.601C145.11 28.651 145.16 28.651 145.26 28.651H147.065C147.166 28.651 147.216 28.601 147.266 28.55C147.316 28.5 147.366 28.449 147.366 28.347Z" fill="black"/>
</g>
<defs>
<clipPath id="clip0_2174_349">
<rect width="148" height="30" fill="white"/>
</clipPath>
</defs>
</svg>
