<svg width="256" height="48" viewBox="0 0 256 48" fill="none" xmlns="http://www.w3.org/2000/svg">
<g clip-path="url(#clip0_15_5395)">
<path d="M116.798 23.2827V24.0373C116.798 24.3489 116.665 24.482 116.354 24.482H99.4266C99.8705 27.4586 102.004 29.5911 105.291 29.5911C107.448 29.5911 109.011 28.9954 110.141 27.6824L110.142 27.6828C110.246 27.5573 110.4 27.4757 110.574 27.4757C110.689 27.4757 110.797 27.5117 110.887 27.5724L110.895 27.5778C110.897 27.5795 110.899 27.5816 110.901 27.5832C110.899 27.5816 110.897 27.5795 110.895 27.5778L110.901 27.5824L114.05 29.7873L114.054 29.7898L114.062 29.7956L114.062 29.7965C114.207 29.8998 114.302 30.0688 114.302 30.2608C114.302 30.3779 114.267 30.4871 114.206 30.5774C114.204 30.5808 114.201 30.5837 114.199 30.5871C114.191 30.5971 114.183 30.608 114.175 30.6176C112.101 33.1621 109.122 34.3894 105.246 34.3894C98.8042 34.3894 93.8285 29.6802 93.8281 22.7937C93.8281 15.9064 98.982 11.1971 105.29 11.1971C112.578 11.1976 116.798 16.7953 116.798 23.2827ZM111.111 20.0388C110.312 17.6402 108.446 15.9959 105.291 15.9959C102.759 15.9959 100.492 17.5068 99.604 20.0388H111.111Z" fill="#00217A"/>
<path d="M255.918 23.2827V24.0373C255.918 24.3489 255.785 24.482 255.474 24.482H238.546C238.99 27.4586 241.124 29.5911 244.411 29.5911C246.568 29.5911 248.131 28.9954 249.261 27.6824L249.262 27.6828C249.366 27.5573 249.519 27.4757 249.693 27.4757C249.809 27.4757 249.917 27.5117 250.007 27.5724L250.014 27.5778C250.017 27.5795 250.019 27.5816 250.021 27.5832C250.019 27.5816 250.017 27.5795 250.014 27.5778L250.021 27.5824L253.17 29.7873L253.174 29.7898L253.182 29.7956L253.181 29.7965C253.327 29.8998 253.422 30.0688 253.422 30.2608C253.422 30.3779 253.387 30.4871 253.326 30.5774C253.324 30.5808 253.321 30.5837 253.319 30.5871C253.311 30.5971 253.303 30.608 253.295 30.6176C251.221 33.1621 248.242 34.3894 244.367 34.3894C237.924 34.3894 232.948 29.6802 232.948 22.7937C232.948 15.9064 238.102 11.1971 244.411 11.1971C251.698 11.1976 255.918 16.7953 255.918 23.2827ZM250.231 20.0388C249.432 17.6402 247.566 15.9959 244.411 15.9959C241.879 15.9959 239.613 17.5068 238.724 20.0388H250.231Z" fill="#00217A"/>
<path d="M91.3904 28.8808C91.3109 28.8812 91.2268 28.8854 91.1072 28.9247C89.5524 29.5028 88.5744 29.5911 87.1978 29.5911C84.9766 29.5911 84.132 28.3475 84.132 25.9481V16.4405H90.8411C91.0863 16.4405 91.285 16.2418 91.285 15.9967V12.0856C91.285 11.8405 91.0863 11.6414 90.8407 11.6414H84.132V5.24304C84.132 4.99792 83.9333 4.79922 83.6882 4.79922H79.2446C78.9995 4.79922 78.8008 4.99792 78.8008 5.24304V26.9261C78.8008 31.8578 81.9999 34.3898 86.2654 34.3894C87.9536 34.3894 90.0857 34.1681 91.3741 33.6791C91.7296 33.5457 91.7296 33.3236 91.7296 32.9237V29.2192C91.7296 29.0322 91.5778 28.88 91.3904 28.8808Z" fill="#00217A"/>
<path d="M141.649 22.7937C141.649 29.9466 137.517 34.3894 131.518 34.3894C129.075 34.3894 127.032 33.6791 125.121 32.1682V42.2986C125.121 42.6094 124.987 42.7424 124.677 42.7424H120.233C119.923 42.7424 119.79 42.609 119.79 42.2986V12.086C119.79 11.7744 119.923 11.6414 120.233 11.6414H124.677C124.988 11.6414 125.121 11.7748 125.121 12.086V13.4635C126.809 12.086 128.853 11.1971 131.518 11.1971C137.517 11.1976 141.649 15.6399 141.649 22.7937ZM136.051 22.7937C136.051 18.9725 133.962 15.9955 130.452 15.9955C126.942 15.9955 124.854 18.9721 124.854 22.7937C124.854 26.614 126.942 29.5911 130.452 29.5911C133.962 29.5911 136.051 26.6145 136.051 22.7937Z" fill="#00217A"/>
<path d="M221.479 11.1971C218.635 11.1971 216.591 12.1751 214.77 13.6852V12.086C214.77 11.7744 214.636 11.6414 214.325 11.6414H209.882C209.572 11.6414 209.438 11.7748 209.438 12.086V33.5014C209.438 33.8122 209.572 33.9452 209.882 33.9452H214.325C214.637 33.9452 214.77 33.8117 214.77 33.5014V23.4157C214.77 18.1284 217.303 15.9955 220.101 15.9955C222.545 15.9955 223.922 17.2838 223.923 20.6164V33.5014C223.923 33.8122 224.056 33.9452 224.366 33.9452H228.81C229.121 33.9452 229.254 33.8117 229.254 33.5014V18.7056C229.254 14.0851 226.321 11.1971 221.479 11.1971Z" fill="#00217A"/>
<path d="M205.514 22.7937C205.514 29.5467 200.404 34.3894 193.607 34.3894C186.809 34.3894 181.7 29.5472 181.7 22.7937C181.7 16.0398 186.809 11.1971 193.607 11.1971C200.405 11.1971 205.514 16.0398 205.514 22.7937ZM199.827 22.7937C199.827 18.7056 197.294 15.9955 193.607 15.9955C189.919 15.9955 187.387 18.7056 187.387 22.7937C187.387 26.8805 189.919 29.5911 193.607 29.5911C197.294 29.5911 199.827 26.8809 199.827 22.7937Z" fill="#00217A"/>
<path d="M59.9389 32.8287C61.707 33.9606 65.3295 35.0867 69.8246 33.8494C73.0288 32.8894 75.5231 30.6414 75.4511 27.2377C75.4511 23.0543 72.2348 21.4108 67.4265 20.6796C62.9281 19.9953 62.1099 19.075 62.0977 17.9707C62.0831 16.6568 63.1761 16.0302 64.6272 15.8357C66.85 15.5374 68.8374 16.5217 70.1358 18.2401C70.3696 18.5496 70.667 18.65 70.9875 18.4639C70.9875 18.4639 74.2502 16.5978 74.5301 16.4355C74.8099 16.2728 74.9149 15.8922 74.7388 15.6307C73.6433 14.0985 72.2198 12.8553 70.4131 12.1538C68.6069 11.4523 67.1952 11.1808 65.4111 11.1976C61.272 11.1976 56.7661 13.1987 56.7661 18.1037C56.8029 21.4627 59.1048 23.6424 64.4913 24.5121C68.6747 25.1742 70.1124 26.0426 70.1199 27.28C70.1308 29.028 68.1321 29.6747 65.573 29.5317C63.5455 29.4183 62.2563 28.406 61.1754 26.8654C61.006 26.6115 60.6153 26.5392 60.3522 26.6897L56.6703 28.798L56.6795 28.8005C56.398 28.9578 56.2486 29.3769 56.4536 29.6329C57.701 31.1894 58.1005 31.6516 59.9389 32.8287Z" fill="#00217A"/>
<path d="M179.227 28.8808C179.147 28.8812 179.063 28.8854 178.944 28.9247C177.389 29.5028 176.411 29.5911 175.034 29.5911C172.813 29.5911 171.968 28.3475 171.968 25.9481V16.4405H178.678C178.923 16.4405 179.121 16.2418 179.121 15.9967V12.0856C179.121 11.8405 178.923 11.6414 178.677 11.6414H171.968V5.24304C171.968 4.99792 171.769 4.79922 171.524 4.79922H167.081C166.835 4.79922 166.637 4.99792 166.637 5.24304V26.9261C166.637 31.8578 169.836 34.3898 174.101 34.3894C175.79 34.3894 177.922 34.1681 179.21 33.6791C179.566 33.5457 179.566 33.3236 179.566 32.9237V29.2192C179.566 29.0322 179.414 28.88 179.227 28.8808Z" fill="#00217A"/>
<path d="M147.775 32.8287C149.543 33.9606 153.165 35.0867 157.661 33.8494C160.865 32.8894 163.359 30.6414 163.287 27.2377C163.287 23.0543 160.071 21.4108 155.262 20.6796C150.764 19.9953 149.946 19.075 149.934 17.9707C149.919 16.6568 151.012 16.0302 152.463 15.8357C154.686 15.5374 156.673 16.5217 157.972 18.2401C158.206 18.5496 158.503 18.65 158.823 18.4639C158.823 18.4639 162.086 16.5978 162.366 16.4355C162.646 16.2728 162.751 15.8922 162.575 15.6307C161.479 14.0985 160.056 12.8553 158.249 12.1538C156.442 11.4523 155.031 11.1808 153.247 11.1976C149.108 11.1976 144.602 13.1987 144.602 18.1037C144.639 21.4627 146.941 23.6424 152.327 24.5121C156.511 25.1742 157.948 26.0426 157.956 27.28C157.967 29.028 155.968 29.6747 153.409 29.5317C151.381 29.4183 150.092 28.406 149.011 26.8654C148.842 26.6115 148.451 26.5392 148.188 26.6897L144.506 28.798L144.515 28.8005C144.234 28.9578 144.085 29.3769 144.29 29.6329C145.537 31.1894 145.936 31.6516 147.775 32.8287Z" fill="#00217A"/>
<path d="M22.2053 14.8694C21.2236 10.0677 26.6924 7.61231 33.3422 7.97707C39.8898 8.33597 46.8445 11.2352 47.2159 14.3817C47.5594 17.2905 40.6336 18.9688 34.6309 18.9688C28.8856 18.9688 22.906 18.2978 22.2053 14.8694Z" fill="#00217A"/>
<path d="M20.0591 8.34182C20.4372 4.74528 14.0406 4.10569 9.66893 5.44593C5.29727 6.78617 1.98224 9.77367 4.98438 11.1896C6.6672 11.9836 9.97303 12.4219 13.8436 11.7882C17.7141 11.1545 19.8466 10.3614 20.0591 8.34182Z" fill="#00217A"/>
<path d="M34.4633 29.3602C33.7229 23.2028 26.8938 21.2895 19.4656 22.2114C12.0374 23.1333 4.01063 26.8922 0.874217 32.0791C-3.35187 39.0685 5.58847 42.9056 15.314 42.737C25.0394 42.5684 35.5501 38.3942 34.4633 29.3602Z" fill="#00217A"/>
</g>
<defs>
<clipPath id="clip0_15_5395">
<rect width="256" height="48" fill="white"/>
</clipPath>
</defs>
</svg>
