<svg xmlns="http://www.w3.org/2000/svg" viewBox="0 0 107 20" role="img" width="111px" height="20px"><title>Talent.com</title><path fill="#691F74" d="M37.62 19.666h-4.322V0h4.322zM44.182 13.443c.248 1.806 1.79 2.915 3.632 2.915 1.293 0 2.615-.692 3.272-1.776l3.106 2.056c-1.24 2.248-3.33 3.362-6.33 3.362-2.285 0-4.18-.721-5.751-2.164-1.541-1.473-2.31-3.333-2.31-5.61 0-2.14.769-3.946 2.286-5.473 1.54-1.526 3.383-2.277 5.503-2.277 2.173 0 3.933.697 5.285 2.057 1.351 1.359 2.037 3.165 2.037 5.359 0 .692-.03 1.222-.054 1.556H44.182zm6.442-2.861C50.512 9.276 49.442 8 47.488 8c-.88 0-1.624.28-2.202.859-.579.555-.91 1.139-.992 1.723zM66.595 19.666v-8.22c0-1.748-.88-2.891-2.557-2.891-1.735 0-2.64 1.251-2.64 2.89v8.221h-4.293V4.61h4.264v2.169h.03a3.87 3.87 0 0 1 1.458-1.443c1.293-.75 2.061-.78 2.698-.78 1.76 0 3.082.554 3.962 1.693.91 1.139 1.347 2.528 1.347 4.196v9.222zM31.115 4.609v15.058h-4.322v-.796c-.958.496-2.018.795-3.14.795-4.119 0-7.459-3.372-7.459-7.529s3.34-7.528 7.458-7.528c1.123 0 2.188.299 3.14.795v-.795zm-7.196 11.145c1.934 0 3.5-1.625 3.5-3.631s-1.566-3.632-3.5-3.632-3.5 1.626-3.5 3.632 1.567 3.632 3.5 3.632M80.97 8.972V4.609H77.34V0h-4.293v14.081c0 3.47 2.008 5.585 5.834 5.585.715 0 1.376-.083 2.008-.28v-3.474h-.768q-.108.006-.224.004c-1.677 0-2.557-.667-2.557-2.36V8.972zM14.352 8.972V4.609h-3.55V0H6.51v14.081c0 3.47 2.008 5.585 5.834 5.585.714 0 1.376-.083 2.008-.28v-3.474h-.768q-.108.006-.224.004c-1.677 0-2.557-.667-2.557-2.36V8.972z"></path><path fill="#FE3B1F" d="M.486 8.972V4.609h4.322v4.358H.486zM83.471 8.448a2.24 2.24 0 0 1-.677-1.615c0-1.279 1.013-2.318 2.285-2.318s2.285 1.045 2.285 2.318c0 .618-.233 1.168-.677 1.615s-.972.68-1.608.68c-.61 0-1.163-.233-1.608-.68"></path><path fill="#691F74" d="M84.077 18.832c-.608-.614-.919-1.38-.919-2.292 0-.869.311-1.62.92-2.258.607-.638 1.365-.947 2.27-.947 1.375 0 2.386.75 2.751 1.85l-1.172.53c-.262-.75-.792-1.133-1.57-1.133a1.74 1.74 0 0 0-1.283.544q-.518.537-.516 1.39-.002.87.516 1.423c.345.373.778.554 1.298.554q1.15 0 1.58-1.148l1.19.535c-.17.495-.505.937-.971 1.31q-.708.553-1.824.555c-.909 0-1.662-.3-2.27-.913M95.507 14.248c.632.613.939 1.364.939 2.267q0 1.368-.939 2.302c-.617.613-1.376.928-2.28.928a3.19 3.19 0 0 1-2.295-.928c-.632-.614-.938-1.38-.938-2.282s.321-1.669.953-2.282a3.19 3.19 0 0 1 2.295-.928c.88.01 1.633.31 2.265.923m-4.118 2.267c0 .545.17 1.006.516 1.399.345.383.792.579 1.332.579s.987-.186 1.317-.57c.331-.382.506-.843.506-1.388q.001-.816-.515-1.39c-.33-.382-.778-.569-1.318-.569s-.987.187-1.332.57c-.33.378-.506.83-.506 1.37M101.618 19.642v-3.475c0-.928-.413-1.541-1.317-1.541-.827 0-1.342.638-1.342 1.575v3.436h-1.366v-6.18h1.332v.835q.722-.972 1.823-.972c.885 0 1.512.334 1.891 1.02.632-.696 1.225-1.02 2.134-1.02 1.478 0 2.227 1.02 2.227 2.498v3.819h-1.366v-3.485c0-.938-.399-1.526-1.308-1.526-.836 0-1.351.623-1.351 1.56v3.45h-1.357z"></path></svg>