<svg width="274" height="67" viewBox="0 0 274 67" fill="none" xmlns="http://www.w3.org/2000/svg">
<path d="M3.00285 15.4762C1.44605 7.45271 7.5917 0 15.7648 0H260.433C267.83 0 273.737 6.16429 273.421 13.555L272.015 46.4582C271.724 53.2509 266.249 58.6727 259.454 58.8961L24.078 66.6357C17.6952 66.8456 12.1052 62.3883 10.8888 56.119L3.00285 15.4762Z" fill="#2075BB"/>
<path d="M22.2085 39.6497V28.1497H18.0085V21.1097H22.2085V14.1797H30.2385V21.1097H35.3885V28.1497H30.2385V37.3897C30.2385 38.8597 31.0785 39.9597 32.4985 39.9597C33.3885 39.9597 34.2885 39.6397 34.5485 39.3297L36.1285 45.4197C35.1285 46.3597 33.1385 47.0997 30.1385 47.0997C24.9885 47.0997 22.2085 44.5297 22.2085 39.6397V39.6497Z" fill="white"/>
<path d="M80.3786 20.4895C85.8386 20.4895 89.2486 22.9095 90.7786 25.1595L85.5286 30.0395C84.5286 28.5695 82.8986 27.6195 80.7486 27.6195C77.3886 27.6195 74.8186 29.9295 74.8186 33.7595C74.8186 37.5895 77.3886 39.9595 80.7486 39.9595C82.8986 39.9595 84.5286 38.9095 85.5286 37.4895L90.7786 42.4295C89.2586 44.6395 85.8386 47.0995 80.3786 47.0995C72.4486 47.0995 66.5186 41.7395 66.5186 33.7595C66.5186 25.7795 72.4486 20.4795 80.3786 20.4795V20.4895Z" fill="white"/>
<path d="M111.669 31.7295C111.669 28.6295 110.039 27.6295 107.469 27.6295C105.109 27.6295 103.529 28.9395 102.589 30.0995V46.4795H94.4985V11.4595H102.589V24.2195C104.109 22.4295 107.099 20.4895 111.359 20.4895C117.139 20.4895 119.759 23.7395 119.759 28.4195V46.4795H111.669V31.7295Z" fill="white"/>
<path d="M142.799 31.8297C142.799 28.7297 141.169 27.6297 138.649 27.6297C136.129 27.6297 134.659 28.9397 133.709 30.0997V46.4797H125.619V21.1197H133.709V24.2197C135.229 22.4297 138.229 20.4897 142.479 20.4897C148.259 20.4897 150.879 23.8497 150.879 28.5197V46.4797H142.789V31.8297H142.799Z" fill="white"/>
<path d="M156.179 13.2997C156.179 10.7297 158.229 8.67969 160.799 8.67969C163.369 8.67969 165.419 10.7297 165.419 13.2997C165.419 15.8697 163.369 17.9197 160.799 17.9197C158.229 17.9197 156.179 15.8697 156.179 13.2997ZM156.759 21.1197H164.849V46.4797H156.759V21.1197Z" fill="white"/>
<path d="M182.909 20.4895C188.369 20.4895 191.779 22.9095 193.309 25.1595L188.059 30.0395C187.059 28.5695 185.429 27.6195 183.279 27.6195C179.919 27.6195 177.349 29.9295 177.349 33.7595C177.349 37.5895 179.919 39.9595 183.279 39.9595C185.429 39.9595 187.059 38.9095 188.059 37.4895L193.309 42.4295C191.789 44.6395 188.369 47.0995 182.909 47.0995C174.979 47.0995 169.049 41.7395 169.049 33.7595C169.049 25.7795 174.979 20.4795 182.909 20.4795V20.4895Z" fill="white"/>
<path d="M214.089 43.4396C212.519 45.2296 209.579 47.1096 205.319 47.1096C199.539 47.1096 196.969 43.8596 196.969 39.1796V21.1196H205.059V35.8696C205.059 38.9196 206.638 39.9696 209.258 39.9696C211.568 39.9696 213.149 38.7096 214.089 37.4996V21.1196H222.178V46.4796H214.089V43.4396Z" fill="white"/>
<path d="M229.259 37.6595C231.149 39.3395 235.189 41.0195 238.189 41.0195C240.609 41.0195 241.599 40.2295 241.599 39.1295C241.599 37.8195 239.869 37.3395 237.239 36.9195C232.929 36.1795 226.839 35.2895 226.839 28.8295C226.839 24.3695 230.669 20.4795 237.709 20.4795C241.959 20.4795 245.589 21.8495 248.319 23.8395L245.219 29.1995C243.699 27.7295 240.809 26.4195 237.759 26.4195C235.869 26.4195 234.559 27.0495 234.559 28.1495C234.559 29.2495 235.929 29.7295 238.599 30.1995C242.909 30.9295 249.309 31.9895 249.309 38.7095C249.309 43.5395 245.059 47.1095 237.759 47.1095C233.239 47.1095 228.569 45.5895 225.889 43.2295L229.249 37.6595H229.259Z" fill="white"/>
<path d="M62.9885 31.8498C61.8285 23.4898 56.0385 19.8198 49.6685 20.6998C42.7185 21.6598 37.8485 27.7298 38.9485 35.6798C39.9985 43.2698 45.8085 48.0398 54.6085 46.8198C57.8085 46.3798 60.6385 45.1998 63.0085 43.3498L62.1885 37.4298C60.0085 39.2998 57.4785 40.6198 54.7285 40.9998C50.9385 41.5298 47.5685 40.0998 46.1285 36.6598L63.1485 34.2998C63.1885 33.5598 63.1185 32.7398 62.9885 31.8298V31.8498ZM45.3985 32.3498C45.6385 29.0898 47.7085 26.7798 50.4185 26.3998C53.0785 26.0298 55.3785 27.6498 55.8685 30.8998L45.3985 32.3498Z" fill="white"/>
<path d="M259 47.32C261.48 47.32 263.48 45.32 263.48 42.84C263.48 40.36 261.48 38.36 259 38.36C256.52 38.36 254.52 40.36 254.52 42.84C254.52 45.32 256.52 47.32 259 47.32Z" fill="#343434"/>
</svg>
