<svg width="84" height="40" viewBox="0 0 84 40" fill="none" xmlns="http://www.w3.org/2000/svg">
<path d="M0 8.30005H5.7L11.3 24.5L16.9 8.30005H22.6L14.6 31.6H8L0 8.30005Z" fill="black"/>
<path d="M22.2002 31.7001V8.30005H30.7002C34.5002 8.30005 37.6002 9.60005 39.8002 11.7C42.0002 13.8 43.1002 16.7 43.1002 19.9C43.1002 21.8 42.7002 23.8 41.8002 25.5C40.9002 27.2 39.6002 28.8 37.8002 29.9C36.0002 31 33.7002 31.7001 31.0002 31.7001H22.2002ZM27.6002 13.4V26.5H29.9002C32.7002 26.5 34.7002 25.5 36.0002 24.3C37.3002 23 37.8002 21.4 37.8002 19.9C37.8002 18.3 37.0002 16.6 35.6002 15.4C34.2002 14.2 32.2002 13.3 29.6002 13.3H27.6002V13.4Z" fill="black"/>
<path d="M58.1 27.5001H48.6L47.2 31.7001H41.5L49.5 8.40015H57.4L65.4 31.7001H59.6L58.1 27.5001ZM50.3 22.4001H56.3L53.3 13.6001L50.3 22.4001Z" fill="black"/>
<path d="M64.7998 31.7001V8.30005H71.6998C73.0998 8.30005 74.5998 8.40005 75.8998 8.70005C77.2998 9.10005 78.4998 9.60005 79.3998 10.5C80.2998 11.4 80.8998 12.7 80.8998 14.4C80.8998 15.6 80.5998 16.6 80.0998 17.4C79.5998 18.2 78.9998 18.8 78.2998 19.3C80.6998 20.3 81.8998 22 81.8998 24.8C81.8998 26.9 81.1998 28.4 80.0998 29.3C78.9998 30.3 77.3998 30.9001 75.5998 31.2001C73.7998 31.5001 71.6998 31.6 69.5998 31.6H64.7998V31.7001ZM70.1998 12.2V17.6C72.2998 17.6 73.5998 17.6 74.5998 17.2C75.4998 16.9 75.8998 16.2 75.8998 15C75.8998 13.7 75.4998 13 74.5998 12.6C73.6998 12.2 72.2998 12.2 70.1998 12.2ZM70.1998 22V27.9C72.3998 27.9 74.0998 27.8 75.2998 27.5C76.3998 27 76.9998 26.3 76.9998 25C76.9998 23.7 76.4998 22.9 75.3998 22.5C74.3998 22.1 72.7998 22 70.8998 22H70.1998Z" fill="black"/>
<path d="M63.0998 36.7H22.7998V40H63.0998V36.7Z" fill="black"/>
<path d="M63.0998 0H22.7998V3.3H63.0998V0Z" fill="black"/>
</svg>
