<svg width="208" height="112" viewBox="0 0 208 112" fill="none" xmlns="http://www.w3.org/2000/svg">
<path d="M0.682904 14.4989C-0.213374 6.77708 5.82259 0 13.5962 0H194.676C201.981 0 207.852 6.01727 207.672 13.3201L205.796 89.4901C205.629 96.2707 200.277 101.783 193.504 102.151L24.2081 111.338C17.348 111.71 11.3825 106.68 10.5904 99.8555L0.682904 14.4989Z" fill="#F83B3B"/>
<path d="M45.1705 45.4071H53.4346L60.2003 20.2513H52.9805L49.0301 37.7333H48.8939L44.217 20.2513H37.1334L32.3657 37.7333H32.2295L28.4607 20.2513H20.8323L27.5525 45.4071H35.9074L40.539 29.0604H40.6752L45.1705 45.4071Z" fill="white"/>
<path d="M91.1215 45.4071H98.3866V33.1017C98.3866 28.3793 101.293 26.7446 104.335 26.7446C105.016 26.7446 105.743 26.79 106.424 26.9717V20.1605C105.879 20.0243 105.289 19.9789 104.517 19.9789C102.292 19.9789 99.3856 20.9778 97.7056 24.0202H97.6147L96.8882 20.2513H91.1215V45.4071Z" fill="white"/>
<path d="M135.481 45.4071L125.355 32.2389L135.163 20.2513H126.581L117.454 31.7395V8.94482H110.189V45.4071H117.454V33.2379L126.581 45.4071H135.481Z" fill="white"/>
<path d="M43.9445 60.6137H22.1945V67.1524H32.5473L20.5598 85.7695H42.5823V79.1854H31.957L43.9445 60.6137Z" fill="white"/>
<path d="M59.1165 86.4052C66.6087 86.4052 72.33 80.9563 72.33 73.1916C72.33 65.336 66.6087 59.978 59.1165 59.978C51.7152 59.978 45.903 65.336 45.903 73.1916C45.903 81.0017 51.7152 86.4052 59.1165 86.4052ZM59.1165 79.8665C56.1197 79.8665 53.259 77.4599 53.259 73.1916C53.259 68.9232 56.1197 66.5166 59.1165 66.5166C62.1134 66.5166 65.0195 68.9232 65.0195 73.1916C65.0195 77.4145 62.1134 79.8665 59.1165 79.8665Z" fill="white"/>
<path d="M129.938 85.7695L119.812 72.6013L129.62 60.6137H121.038L111.911 72.1018V49.3072H104.646V85.7695H111.911V73.6002L121.038 85.7695H129.938Z" fill="white"/>
<path d="M173.397 59.978C169.946 59.978 167.313 61.7943 165.814 64.1555H165.678L164.951 60.6137H159.321V85.7695H166.586V70.8758C166.586 68.3784 168.357 66.5621 170.945 66.5621C173.579 66.5621 174.941 67.9697 174.941 71.0574V85.7695H182.206V68.9687C182.206 63.3381 178.846 59.978 173.397 59.978Z" fill="white"/>
<path d="M86.211 30.7628C85.0594 22.4417 79.2831 18.7946 72.9411 19.6723C66.0144 20.631 61.1653 26.6654 62.2609 34.5817C63.3067 42.1381 69.0975 46.8834 77.8683 45.6696C81.0617 45.2276 83.8795 44.0583 86.2379 42.2192L85.4224 36.327C83.2502 38.1862 80.7272 39.498 77.9835 39.8777C74.2053 40.4006 70.8466 38.986 69.4103 35.5634L86.3672 33.2166C86.4025 32.4783 86.3354 31.6624 86.211 30.7628ZM68.6778 31.2641C68.9167 28.0222 70.9817 25.7194 73.6804 25.3459C76.3342 24.9786 78.6196 26.5876 79.1128 29.8199L68.6778 31.2641Z" fill="white"/>
<path d="M153.638 70.7039C152.487 62.3828 146.71 58.7357 140.368 59.6134C133.442 60.572 128.592 66.6065 129.688 74.5228C130.734 82.0792 136.525 86.8245 145.295 85.6106C148.489 85.1687 151.307 83.9994 153.665 82.1603L152.85 76.2681C150.677 78.1273 148.154 79.4391 145.411 79.8188C141.632 80.3417 138.274 78.9271 136.837 75.5044L153.794 73.1577C153.83 72.4193 153.763 71.6035 153.638 70.7039ZM136.105 71.2051C136.344 67.9632 138.409 65.6605 141.108 65.287C143.761 64.9197 146.047 66.5287 146.54 69.761L136.105 71.2051Z" fill="white"/>
<path d="M100.663 70.7039C99.5115 62.3828 93.7351 58.7357 87.3932 59.6134C80.4665 60.572 75.6175 66.6065 76.713 74.5228C77.7588 82.0792 83.5496 86.8245 92.3204 85.6106C95.5139 85.1687 98.3316 83.9994 100.69 82.1603L99.8746 76.2681C97.7023 78.1273 95.1793 79.4391 92.4357 79.8188C88.6575 80.3417 85.2987 78.9271 83.8624 75.5044L100.819 73.1577C100.855 72.4193 100.788 71.6035 100.663 70.7039ZM83.1299 71.2051C83.3688 67.9632 85.4338 65.6605 88.1325 65.287C90.7863 64.9197 93.0717 66.5287 93.5649 69.761L83.1299 71.2051Z" fill="white"/>
<path d="M192 86.32C194.48 86.32 196.48 84.32 196.48 81.84C196.48 79.36 194.48 77.36 192 77.36C189.52 77.36 187.52 79.36 187.52 81.84C187.52 84.32 189.52 86.32 192 86.32Z" fill="#8C2424"/>
</svg>
