<svg class="w-full h-full max-w-[116px] object-contain transition-all" viewBox="0 0 116 52.882" fill="none" xmlns="http://www.w3.org/2000/svg">
  <path d="M51.8 27.621c0 1.27-.42 2.321-1.301 3.219-.86.898-1.873 1.335-3.085 1.335-1.234 0-2.248-.437-3.107-1.313-.86-.876-1.278-1.949-1.278-3.219 0-1.314.418-2.408 1.278-3.306.86-.898 1.873-1.336 3.129-1.336 1.212 0 2.204.438 3.063 1.336.881.898 1.3 1.97 1.3 3.284zm-4.232-8.232c-1.785 0-3.261.525-4.473 1.576V15.58a.567.567 0 0 0-.573-.57h-2.71a.567.567 0 0 0-.574.57v19.29c0 .328.265.569.573.569h2.534c.331 0 .573-.263.573-.57V34.3c1.212 1.008 2.777 1.533 4.65 1.533 2.27 0 4.21-.788 5.752-2.365 1.542-1.576 2.336-3.525 2.336-5.78 0-2.255-.794-4.204-2.38-5.824-1.565-1.642-3.482-2.474-5.708-2.474zM70.993 19.827h-2.93a.6.6 0 0 0-.552.372L63.7 30.008l-3.746-9.81a.6.6 0 0 0-.551-.371H56.47a.554.554 0 0 0-.485.262.604.604 0 0 0-.066.548l5.708 13.947-2.028 4.904a.682.682 0 0 0 .044.548c.11.153.287.263.485.263h2.82c.243 0 .442-.132.53-.35l8.021-19.29a.682.682 0 0 0-.044-.548c-.088-.197-.264-.284-.463-.284zM93.56 26.154c.176-.766.484-1.38.859-1.817.815-.92 1.851-1.358 3.152-1.358 1.079 0 2.005.373 2.82 1.117.66.591 1.057 1.27 1.212 2.058zm4.032-6.831c-2.225 0-4.143.81-5.707 2.43-1.565 1.599-2.337 3.57-2.337 5.846 0 2.256.794 4.204 2.337 5.802 1.564 1.599 3.46 2.409 5.663 2.409 1.697 0 3.24-.482 4.584-1.445 1.168-.832 1.983-1.555 2.556-2.868a.542.542 0 0 0-.044-.548.554.554 0 0 0-.485-.263h-2.886a.622.622 0 0 0-.464.22c-.793 1.05-1.762 1.247-3.15 1.247-1.059 0-1.94-.306-2.69-.941a4.315 4.315 0 0 1-1.322-1.84h11.24a.56.56 0 0 0 .573-.525 14.5 14.5 0 0 0 .087-1.445c0-2.211-.793-4.138-2.336-5.714-1.564-1.555-3.437-2.365-5.62-2.365zM115.31 19.607a.504.504 0 0 0-.419-.153c-1.234.044-2.292.35-3.15.942a.582.582 0 0 0-.574-.57h-2.534a.567.567 0 0 0-.573.57v14.45c0 .329.265.57.573.57h2.71c.33 0 .573-.263.573-.57v-7.882c0-2.277.97-3.415 3.042-3.59a.573.573 0 0 0 .529-.57v-2.78a.597.597 0 0 0-.177-.417zM80.515 19.454c-1.498 0-2.732.372-3.724 1.095v-.153a.567.567 0 0 0-.573-.57h-2.534a.567.567 0 0 0-.573.57v14.45c0 .329.264.57.573.57h2.754c.33 0 .573-.263.573-.57v-7.838c0-1.27.287-2.255.86-2.934.55-.657 1.322-.985 2.336-.985 1.19 0 2.027.394 2.556 1.204.352.525.529 1.445.529 2.715v7.838c0 .329.264.57.573.57h2.71a.567.567 0 0 0 .573-.57V25.98c0-1.927-.617-3.503-1.85-4.73-1.213-1.182-2.844-1.795-4.783-1.795z" fill="var(--byner-logo-black, #000000)"></path>
  <path d="M15.616 42.73c-.683-.877-1.344-1.774-2.027-2.65-1.874-2.452-3.725-4.905-5.598-7.335-.925-1.226-1.895-2.43-2.798-3.679-.772-1.05-1.146-2.277-.794-3.547.705-2.496 3.46-4.072 5.73-4.97 2.622-1.05 5.773-1.751 8.396-.35 2.534 1.357 3.504 3.832 4.341 6.371 0 0 .705-1.86 1.543-5.189 0 0-.199-.525-.463-.854-.22-.262-.419-.547-.64-.81a10.747 10.747 0 0 0-1.85-1.751c-2.777-2.059-6.325-2.124-9.652-1.555-2.6.438-7.03 2.562-9.19 5.342-1.146 1.49-1.939 3.329-1.807 5.233.133 1.993 1.234 3.547 2.402 5.102 2.49 3.372 5.113 6.656 7.625 9.984.705.92 1.41 1.818 2.093 2.737zM28.683 35.416a154.967 154.967 0 0 0-2.402-8.868c-.308 1.051-.595 2.124-.947 3.153-.177.548-.419 1.095-.661 1.62-.177.35-.265.416-.199.789.044.284.155.569.22.854.64 2.561 1.169 5.123 1.61 7.729.396 2.408 1.101 5.67-.838 7.663-1.807 1.861-4.804-.066-6.325-1.38-.991-.875-1.763-1.926-2.578-2.977l-2.688 2.058c.264.328.507.657.749.985 1.102 1.401 2.226 2.715 3.724 3.722 2.865 1.927 6.92 2.715 9.586.022 1.63-1.642 2.248-3.985 2.182-6.24-.066-3.087-.75-6.152-1.433-9.13z" fill="var(--byner-logo-lavender, #4C2683)"></path>
  <path d="M25.51 16.477c-.837 3.897-1.785 7.838-3.217 11.56-.706 1.818-1.543 3.372-3.218 4.489-1.939 1.292-4.143 1.313-6.346.81-2.557-.57-5.223-1.686-7.03-3.635A603.797 603.797 0 0 1 8.674 33.6c.44.569.881 1.16 1.322 1.73.22.284.463.744.75.963.286.24.793.306 1.19.394 2.38.503 4.98.57 7.293-.329 2.182-.854 4.033-2.54 5.201-4.554 1.014-1.773 1.477-3.875 2.05-5.824.859-2.912 1.674-5.846 2.357-8.824a126.936 126.936 0 0 1-3.327-.678zM30.138 7.806c-.044-1.905-.771-4.007-2.115-5.408-1.917-1.993-4.738-2.19-7.228-1.292-2.358.854-4.21 2.496-5.73 4.423-1.939 2.452-3.812 4.948-5.685 7.422-2.094 2.737-4.231 5.452-6.28 8.233.925-1.05 2.07-1.883 3.283-2.606 1.498-.897 3.107-1.576 4.43-1.948.22-.153.352-.416.528-.635 2.16-2.847 4.253-5.759 6.523-8.517 1.454-1.752 5.09-4.883 7.426-2.934 2.446 2.036 1.3 6.831.97 8.604-.066.329-.375 1.84-.375 1.84s.816.175 1.014.219l2.248.46c.506-2.562 1.035-5.234.991-7.861z" fill="var(--byner-logo-rose, #CD1719)"></path>
</svg>