<svg width="842" height="596" viewBox="0 0 842 596" fill="none" xmlns="http://www.w3.org/2000/svg">
<path d="M62.2004 475.79C65.5104 475.47 66.4904 477.35 68.9804 477.3C78.2004 477.13 87.4304 476.76 96.6304 477.13C100.48 477.29 104.46 478.67 108.01 480.3C112.43 482.32 115.54 481.3 116.93 476.47C119.47 467.64 114.83 460.83 105.48 460.46C95.2004 460.05 84.9004 460.23 74.6104 460.14C68.8004 460.09 68.8004 460.07 68.2304 454.23C67.6504 448.303 70.2738 445.363 76.1004 445.41C85.8604 445.48 95.6404 445.08 105.35 445.74C110.79 446.11 116.55 447.34 121.41 449.72C130.69 454.28 133.96 462.92 133.42 472.82C132.85 483.34 128.46 491.58 117.88 495.37C117.66 495.45 117.51 495.74 117.1 496.18C123.4 504.34 129.73 512.54 136.88 521.8C130.25 521.8 124.68 522.38 119.33 521.53C117 521.16 114.87 518.04 113.11 515.82C108.88 510.48 104.87 504.98 100.89 499.45C99.2504 497.17 97.3204 496.11 94.4504 496.37C91.8004 496.62 89.1004 496.61 86.4404 496.46C83.6704 496.3 82.6404 497.33 82.7104 500.14C82.8604 506.15 82.6404 512.17 82.7704 518.18C82.8304 520.93 81.8704 521.86 79.0704 521.91C68.0004 522.1 68.0104 522.19 68.0204 511.15C68.0204 508.34 67.9204 505.53 68.0404 502.73C68.3404 495.41 68.3204 493.08 68.3204 483.86C67.4904 482.94 63.1204 477.79 62.1904 475.77L62.2004 475.79Z" fill="black"/>
<path d="M481.72 501.12C482.95 502.45 484.02 503.61 485.09 504.77C491.17 511.3 491.17 511.5 483.58 516.45C470.69 524.85 457.05 525.52 443.55 518.78C430.16 512.11 424.02 500.17 423.21 485.57C422.16 466.45 430.46 452.45 447.07 446.11C460.31 441.06 473.34 442.11 485.36 450.21C489.45 452.96 489.52 453.89 486.36 457.76C484.43 460.14 482.75 463.83 480.35 464.4C478.08 464.94 475.06 462.11 472.3 460.91C463.59 457.13 454.98 457.15 447.21 462.95C438.86 469.18 437.19 478.24 438.81 487.82C442.46 509.43 462.83 512.3 476.56 504.58C478.18 503.67 479.65 502.51 481.71 501.12H481.72Z" fill="black"/>
<path d="M547.02 496.23C546.79 511.9 535.72 522.54 519.8 522.4C502.63 522.25 491.95 511.47 492.15 494.51C492.33 479.28 504.32 468 520.06 468.25C536.19 468.51 547.26 480 547.03 496.22L547.02 496.23ZM520.11 510.38C528.39 510.33 533.92 504.38 533.88 495.58C533.84 487.08 527.95 481.09 519.64 481.07C511.24 481.06 505.68 487.07 505.67 496.16C505.67 504.54 511.65 510.43 520.12 510.38H520.11Z" fill="black"/>
<path d="M187.61 513.12C185.1 515.1 183.26 516.83 181.16 518.14C169.74 525.3 152.22 522.66 145.07 512.81C136.35 500.79 137.46 482.55 147.74 474.02C155.86 467.28 165.26 466.53 174.95 469.94C184.76 473.39 189.13 481.14 190.42 490.99C191.57 499.77 191.54 499.73 182.87 499.65C174.45 499.57 166.04 499.56 157.62 499.54C156.17 499.54 154.73 499.69 152.85 499.79C152.73 504.01 154.99 506.58 157.91 508.44C165.83 513.5 172.96 510.73 179.12 505.79C181.96 508.24 184.45 510.38 187.62 513.11L187.61 513.12ZM177.33 490.13C175.9 482.61 170.69 479.11 163.04 479.95C157.18 480.59 153.19 484.65 153.33 490.13H177.33Z" fill="black"/>
<path d="M673.57 499.73C673.7 505.25 677.24 507.87 681.1 509.61C688.09 512.77 694.38 510.6 700.25 505.56C701.36 506.51 702.45 507.42 703.52 508.35C709.18 513.3 709.13 513.78 702.69 517.87C687.34 527.61 666.62 521.21 661.63 504.76C658.6 494.8 659.99 485.12 666.83 476.77C673.08 469.13 684 466.15 693.81 469.23C703.76 472.36 710.04 479.9 710.92 490.21C711.95 502.21 711.78 499.73 702.35 499.73C693.8 499.73 685.25 499.46 676.69 499.34C675.78 499.33 674.87 499.55 673.57 499.72V499.73ZM674.66 489.71H697.5C697.16 483.84 692.46 479.83 686.32 479.85C679.77 479.87 675.06 483.71 674.66 489.71Z" fill="black"/>
<path d="M315.68 519.9C310.58 520.63 305.49 521.99 300.42 521.93C290.81 521.82 283.78 515.35 283.18 505.79C282.48 494.47 282.66 483.09 282.63 471.73C282.63 470.9 284.01 470.02 284.83 469.26C285.05 469.06 285.6 469.23 286.01 469.22C292.95 469.007 296.424 472.343 296.43 479.23C296.43 486.18 296.41 493.13 296.51 500.08C296.56 503.88 297.61 507.34 301.49 508.94C305.98 510.79 310.62 510.95 314.19 507.31C315.75 505.72 316.66 502.86 316.72 500.55C316.97 491.47 316.9 482.37 316.67 473.29C316.59 470.18 317.35 469.07 320.63 469.13C330.68 469.3 330.69 469.17 330.68 479.18C330.67 491.48 330.66 503.77 330.6 516.07C330.57 521.62 330.51 521.62 325.11 521.63C323.64 521.63 322.12 521.84 320.71 521.55C318.89 521.18 317.16 520.39 315.69 519.89L315.68 519.9Z" fill="black"/>
<path d="M623.39 470.74C629.94 467.13 637.51 466.97 645.11 470.68C650.17 473.15 653.49 477.31 653.73 482.85C654.27 494.98 654.21 507.13 654.4 519.28C654.4 519.55 654.46 519.9 654.32 520.06C651.13 523.74 646.92 521.25 643.21 521.7C642.55 521.78 640.94 519.72 640.92 518.63C640.71 509.69 640.86 500.73 640.73 491.79C640.61 483.8 636.57 480.22 628.79 480.96C624.01 481.41 621.88 483.57 621.87 488.5C621.85 498.12 621.87 507.74 622.15 517.35C622.25 520.9 621.09 522.18 617.57 521.87C614.7 521.62 611.78 521.82 608.23 521.82C608.23 514.15 608.24 507.1 608.23 500.05C608.21 491.23 608.3 482.42 608.08 473.61C608 470.44 609.04 469.19 612.16 469.37C614.02 469.48 615.91 469.11 617.76 469.3C619.4 469.47 620.99 470.11 623.4 470.75L623.39 470.74Z" fill="black"/>
<path d="M553.39 495.6C553.39 488.12 553.49 480.64 553.34 473.16C553.28 470.19 554.4 468.83 557.31 469.3C560.56 469.83 564.22 467.58 567.15 470.78C567.42 471.07 568.83 470.5 569.61 470.12C574.94 467.56 580.52 467.58 586.07 468.79C593.5 470.41 598.49 475.87 598.85 483.78C599.38 495.51 599.21 507.28 599.32 519.03C599.32 519.56 599.26 520.53 599.14 520.55C595.57 520.99 591.97 521.56 588.4 521.5C587.62 521.49 586.24 519.15 586.21 517.85C585.99 508.77 586.24 499.68 585.98 490.61C585.77 483.29 580.83 479.41 574.05 480.73C569.23 481.67 567.14 484.04 567.11 488.96C567.06 498.44 566.98 507.93 567.21 517.41C567.29 520.97 566.1 521.99 562.61 521.92C553.42 521.76 553.41 521.91 553.42 512.84C553.42 507.1 553.42 501.35 553.42 495.61H553.38L553.39 495.6Z" fill="black"/>
<path d="M743.7 468.04C749.15 467.57 754.58 469.97 759.8 473.2C762.6 474.94 762.96 476.94 760.94 479.46C760.61 479.88 760.32 480.33 759.98 480.75C756.02 485.67 755.1 485.87 749.45 483.05C743.54 480.1 737.39 480.71 733 484.68C728.93 488.36 727.46 495.42 729.6 501C732.87 509.52 743.75 512.54 751.79 507.17C754.91 505.09 756.76 505.91 760.65 510.57C763.07 513.47 760.49 514.62 758.96 516C750.16 523.93 735.76 524.5 725.45 517.42C716.25 511.11 712.1 497.36 716.13 486.58C720.64 474.5 729.89 468.08 743.69 468.04H743.7Z" fill="black"/>
<path d="M234.28 504.94C237.17 507.51 239.92 509.96 243.52 513.18C239.69 515.81 236.75 518.74 233.21 520.1C222.66 524.16 212.37 523.5 203.54 515.74C195.25 508.46 193.35 498.81 196.03 488.64C198.97 477.48 206.63 470.62 218.2 468.65C226.47 467.24 234.1 469.13 241.13 473.67C243.84 475.42 243.88 477.39 241.89 479.61C240.73 480.9 239.44 482.07 238.14 483.22C235.89 485.21 234.02 486.13 230.96 483.65C225.83 479.48 217.28 480.49 212.92 484.98C208.08 489.97 207.28 498.59 211.13 504.24C214.77 509.58 222.47 511.84 228.21 509.04C230.21 508.07 231.95 506.54 234.28 504.94Z" fill="black"/>
<path d="M365.96 451.99C369.83 452.49 374.07 452.89 378.23 453.7C379.17 453.88 380.39 455.47 380.5 456.51C380.81 459.41 380.71 462.38 380.56 465.31C380.44 467.82 381.27 469.14 383.95 468.88C384.34 468.84 384.75 468.91 385.15 468.93C393.04 469.18 394.55 471.07 392.64 478.93C392.41 479.87 390.75 480.97 389.65 481.1C386.91 481.41 384.11 481.2 380.84 481.2C380.84 489.37 380.55 497.33 380.97 505.26C381.16 508.84 384.48 509.39 387.43 508.68C390.63 507.91 391.36 509.13 391.49 512.07C391.96 522.69 391.6 523.11 380.88 522.09C372.65 521.3 367.32 515.84 366.96 507.29C366.65 499.96 366.77 492.61 366.7 485.26C366.68 483.02 366.99 481.02 363.77 480.05C362.63 479.71 362.22 476.01 362.05 473.79C361.97 472.75 363.21 471.59 363.89 470.5C364.56 469.43 365.82 468.42 365.87 467.34C366.08 462.32 365.96 457.28 365.96 451.97V451.99Z" fill="black"/>
<path d="M765.6 452.11C770.29 452.71 774.52 453.11 778.67 453.92C779.44 454.07 780.28 455.83 780.41 456.92C780.73 459.7 780.74 462.52 780.74 465.32C780.74 467.84 781.84 469.01 784.39 468.84C785.59 468.76 786.81 468.98 787.99 468.81C791.74 468.28 793.17 469.56 793.1 473.59C792.93 483.21 792.88 481.28 785.27 481.11C781.7 481.03 780.23 481.76 780.45 485.64C780.75 490.96 780.39 496.32 780.45 501.67C780.52 507.54 782 509.07 787.69 508.18C791.35 507.61 792.11 508.92 792.12 512.1C792.17 523.21 793.83 522.49 781.89 522.03C772.84 521.68 767.15 515.54 766.87 506.03C766.42 490.41 766.31 474.78 766.02 459.15C765.98 457.04 765.76 454.93 765.58 452.12L765.6 452.11Z" fill="black"/>
<path d="M261.5 471.57C265.22 470.55 269.36 469.28 273.56 468.3C276.52 467.61 277.81 469.08 277.38 472.07C277.36 472.2 277.38 472.34 277.38 472.47C277.25 475.39 278.16 479.2 276.66 480.97C275.37 482.5 271.34 481.77 268.52 481.94C263.9 482.22 261.5 484.5 261.44 489.35C261.32 498.83 261.29 508.31 261.47 517.79C261.53 521.01 260.41 521.86 257.31 521.83C248.09 521.73 248.09 521.85 248.03 512.84C247.93 499.76 247.92 486.67 247.64 473.59C247.58 470.58 248.57 469.45 251.43 469.47C253.16 469.49 254.96 468.97 256.61 469.3C258.26 469.63 259.76 470.73 261.51 471.58L261.5 471.57Z" fill="black"/>
<path d="M353.23 469.45C353.23 471.56 353.23 473.52 353.23 475.47C353.27 489.35 353.23 503.24 353.4 517.12C353.44 520.66 352.46 522.06 348.64 521.96C339.59 521.72 339.62 521.91 339.6 512.75C339.58 499.4 339.58 486.05 339.41 472.7C339.38 470.2 340.13 469.34 342.56 469.42C345.99 469.54 349.44 469.45 353.24 469.45H353.23Z" fill="black"/>
<path d="M345.7 464.63C340.66 464.55 336.94 460.93 336.99 456.15C337.04 451.23 341.01 447.42 346.07 447.42C350.47 447.42 354.34 451.46 354.34 456.04C354.34 460.93 350.54 464.7 345.7 464.63Z" fill="black"/>
<path d="M560.3 187.38L471.79 253.42L522.85 273.51L560.3 187.38Z" fill="#94D4E9"/>
<path d="M300.21 187.38H354.17H560.3L471.79 253.42L300.21 187.38Z" fill="#53BAEA"/>
<path d="M344.47 310.96V294.62L300.21 187.38L471.79 253.42L346.51 310.96H344.47Z" fill="#3471B7"/>
<path d="M354.68 87.7199V187.38H386V87.7199C386 87.7199 387.28 71.9299 370.21 71.9299C353.14 71.9299 354.68 87.7199 354.68 87.7199Z" fill="#51B3E6"/>
<path d="M473.91 87.7199V187.38H505.23V87.7199C505.23 87.7199 506.51 71.9299 489.44 71.9299C472.37 71.9299 473.91 87.7199 473.91 87.7199Z" fill="#7ACCEB"/>
<path d="M344.47 310.96H346.51L471.79 253.43L522.85 273.52L517.06 285.09V349.43C517.06 349.43 515.53 378.03 488.46 378.03C487.22 378.03 485.99 377.84 484.8 377.48L344.14 333.99V330.03L505.95 357.09V315.73L344.46 310.96H344.47Z" fill="#57B7E8"/>
<path d="M487.36 378.02H383.27C383.27 378.02 344.14 377.89 344.14 338.89V333.98L487.35 378.02H487.36Z" fill="#2B5FAA"/>
<path d="M61.6904 475.79L68.3304 483.88H105.95C105.95 483.88 111.82 483.71 114.04 480.65L104.25 475.8H61.7004L61.6904 475.79Z" fill="#32A7DF"/>
</svg>
